<svg xmlns="http://www.w3.org/2000/svg" xml:space="preserve" fill-rule="evenodd" stroke-linejoin="round" stroke-miterlimit="2" clip-rule="evenodd" viewBox="0 0 15 15"><path fill="#f4f4f4" d="M4.857 1.698A2.91 2.91 0 0 1 7.5 0a2.91 2.91 0 0 1 2.643 1.698l4.201 9.188c.173.379.263.791.263 1.208A2.92 2.92 0 0 1 11.701 15H3.299a2.92 2.92 0 0 1-2.905-2.906c0-.417.09-.829.263-1.209z"/><path fill="#006946" fill-rule="nonzero" d="m5.312 1.906-4.201 9.187a2.4 2.4 0 0 0-.218 1.001A2.417 2.417 0 0 0 3.299 14.5h8.402a2.417 2.417 0 0 0 2.406-2.406c0-.345-.074-.686-.218-1L9.688 1.906A2.41 2.41 0 0 0 7.5.5a2.41 2.41 0 0 0-2.188 1.406"/><path fill="#fbe300" d="M4.136 10.037h.819l1.28 2.866h-.867l-.187-.469H3.897l-.187.469h-.859zm.035 1.717.735-.001-.366-.914zm4.41-.357a.75.75 0 0 1 .397.668c0 .64-.584.839-1.109.839H6.39v-2.866h1.467c.572 0 1.037.258 1.037.803a.56.56 0 0 1-.314.556Zm-.707.874c.21 0 .302-.107.302-.27v-.009a.27.27 0 0 0-.267-.267l-.035.002H7.19v.545h.684Zm-.684-1.578v.437h.648c.167 0 .259-.087.259-.215l-.001-.024a.23.23 0 0 0-.224-.2l-.025.001zm4.326 1.304.477.533a1.54 1.54 0 0 1-1.153.449c-1.12 0-1.566-.711-1.566-1.487 0-.739.489-1.518 1.566-1.518.417-.004.819.161 1.113.457l-.501.488a.85.85 0 0 0-.612-.246c-.557 0-.763.449-.763.823 0 .37.199.795.763.795a.98.98 0 0 0 .676-.294"/><path fill="#fff" d="M11.417 9.152c.036.011.026.006.024.031a.05.05 0 0 1-.048.045 7 7 0 0 1-.275.006c-.092 0-.295-.152-.367-.089s.089.093.075.114a.13.13 0 0 1-.088.05c-.124-.022-.2-.054-.342-.075a.16.16 0 0 1-.136-.067c-.034-.081-.059-.212-.071-.231a1.6 1.6 0 0 0-.071-.364.1.1 0 0 1 .005-.061.45.45 0 0 1 .343-.164c.016-.001.047-.002.052.036a2.6 2.6 0 0 0 .027.451.06.06 0 0 0 .036.04c.069.018.221.055.354.093a4 4 0 0 0 .481.186Zm-1.995-.916v.002l.002.017.012.139c.01.152.015.361-.037.384-.203.09-.501-.373-.535-.532-.034-.158-.233-.735-.401-.842-.134-.085-.122-.214-.165-.381a1.7 1.7 0 0 0-.105-.288 3 3 0 0 1-.199-.477.92.92 0 0 0-.229-.558 1 1 0 0 0-.111-.088q.122-.009.242.009c.104.018.162-.011.126-.055-.035-.044-.098-.125-.113-.14a.06.06 0 0 0-.061-.014c-.036.013-.183.057-.183.057s-.052.019-.043-.016l.062-.24a.06.06 0 0 1 .042-.039c.037-.012.099-.048.136.027q.08.143.184.268c.023-.002.028-.116.025-.206-.001-.036.074.02.122-.025l.023-.106c.007-.025.025-.062.056-.041.034.024.103.012.165-.045q.075-.074.136-.161c.04-.063.001-.122-.051-.082-.031.024-.059.06-.092.068s-.208.038-.27-.024a.76.76 0 0 1-.201-.298 1 1 0 0 0-.032-.187c-.018-.017-.065-.14-.022-.187 0 0 .04-.045.066-.029a.4.4 0 0 0 .066.01c.039.001.039-.02.039-.037.059-.015.086-.053.101-.007a1 1 0 0 1-.041.232.3.3 0 0 1-.104.103.1.1 0 0 0-.023.117.6.6 0 0 0 .178.161.3.3 0 0 0 .123.011c.019-.002.059-.028.026-.06 0 0-.064-.011-.079-.036l-.003-.004a.024.024 0 0 1 .008-.033 1 1 0 0 0 .105-.012.3.3 0 0 0 .123-.045s-.005.072.029.075.071-.07.064-.096c-.008-.025-.034-.119-.072-.108-.023.007.02.076-.021.082a.4.4 0 0 1-.126 0 .3.3 0 0 0-.086.003c-.033.002-.043-.019-.009-.022.048-.004.044-.047.088-.029.039.016.066-.044.048-.057 0 0-.032-.026-.055-.021a.15.15 0 0 1-.072.018c-.02-.001-.059-.025-.053-.054l.03-.115.016-.175a.1.1 0 0 0-.032-.041l-.076-.05-.207-.037s.005-.061.026-.075a.6.6 0 0 0 .193-.113.3.3 0 0 1 .176-.041.8.8 0 0 0 .254-.025l.057.048a.2.2 0 0 1 .099.138 1 1 0 0 1 .014.237c.006.062.054.062.062.006a1.3 1.3 0 0 0 .013-.259.33.33 0 0 0-.108-.202l-.001-.087s.005-.025-.033-.011a.6.6 0 0 1-.275.029c-.149-.016-.252-.015-.288.032s-.244.104-.302.154a.17.17 0 0 0-.062.103s-.02.061-.034.022a.5.5 0 0 1-.02-.208c.016-.068.063-.086.07-.146.007-.061.114-.274.47-.303a.2.2 0 0 0 .064-.009.37.37 0 0 1 .376.146s.06-.022.081-.003c.094.086.03.18.047.187s.144.069.078.495c0 0-.002.023.012.03s.037.071 0 .175l-.045.131a.1.1 0 0 1-.032.045c-.022.015-.03.021-.044.027a.05.05 0 0 0-.027.034c-.007.027-.017.175-.071.219a.1.1 0 0 0-.019.05q-.015.107-.05.209a.9.9 0 0 1-.255.326c-.116.116-.161.156-.178.287a2 2 0 0 0-.022.201l-.001.009a.067.067 0 0 0 .133.01.48.48 0 0 1 .146-.367.9.9 0 0 0 .386-.52c.011-.068.069-.061.104-.029.061.056.108.177.169.193q.319.116.6.306.055.03.097.074l.006-.001q.028.03.047.066l.018.029.003.008c.133.241.371.807.406.893q.149.417.213.854-.003.227.034.45c.003.051.09.01.147.04.076.046.024.285.024.285l.002-.001s-.009.096-.14.09q-.312.017-.603.129c-.045.011-.081.003-.096-.024a3 3 0 0 1-.084-.261c-.019-.069.174-.128.257-.165.032-.014.028-.038-.022-.049a.8.8 0 0 0-.212-.005c-.067.005-.057-.049-.057-.049s.027-.015.012-.068c-.018-.058-.072-.076-.066-.117.02-.149.262-.177.282-.244.019-.062-.087-.085-.24-.039-.066.02-.082-.081-.082-.081l-.023-.143-.034-.34a.4.4 0 0 1 .01-.183q.08-.24.08-.494c-.013-.125-.101-.095-.105-.059a3.2 3.2 0 0 1-.189.614s-.034.32-.034.43c0 .173.001.473.011.665.006.103.024.338.043.558Zm-.939-2.698c-.019.03-.011.062.013.057q.22-.028.443-.022c.071.005.031-.088-.016-.114l-.163-.09a.1.1 0 0 0-.097-.005l-.18.172Zm.592.78a.064.064 0 0 0 .058-.064.066.066 0 0 0-.059-.065 8 8 0 0 0-.471.003c-.073.004-.058.136.013.138a9 9 0 0 0 .46-.011Zm-.501-2.193a.2.2 0 0 0 .073-.037c.012-.017.018-.035-.032-.048-.045-.012-.081-.015-.081-.024s.021-.01.039-.011a.3.3 0 0 0 .073-.014c.008-.007.019-.025.013-.036a.2.2 0 0 0-.082-.026.5.5 0 0 0-.122.009c-.02.007-.089.053-.094.07-.004.017.029.025.027.038a.1.1 0 0 0 .001.039c.006.011.048.072.078.075a.3.3 0 0 0 .088 0c.018-.005.018-.034.018-.034ZM8.3 6.502c.004-.084.011-.443.007-.509s-.126-.09-.132 0q-.006.25.014.497c.011.099.107.096.111.012M9.381 9.15l-.001-.003c.049.013-.007.07-.007.07s-.207.005-.401.002a3 3 0 0 1-.352-.092.27.27 0 0 0-.195.011c-.03.006-.072.072-.134.079q-.075.006-.15.001c-.039.001-.124-.016-.034-.057q.136-.063.238-.172c.027-.029.029-.133.036-.165.016-.069-.151-.265-.22-.352l-.01-.009a.035.035 0 0 1 .006-.049c.07-.1.179-.166.299-.182a.06.06 0 0 1 .039.031l.174.363s.131.192.155.24a.5.5 0 0 0 .07.098s.143.089.172.101q.155.051.316.083Zm-4.69.006c.02.005.012.029.006.046q-.004.012-.017.014-.03.005-.059.003a.5.5 0 0 1-.152-.003c-.041-.016-.084-.082-.193-.099l-.07-.005-.043.002a.5.5 0 0 0-.138.053.6.6 0 0 1-.123.057c-.025.002-.118-.004-.237-.004-.132 0-.243.003-.261.001s-.057-.03-.059-.05c0-.003-.002-.011.017-.018q.031-.01.088-.021.096-.019.188-.05.108-.045.208-.104l.001-.001.061-.064.201-.252.237-.453s.015-.021.03-.014a.84.84 0 0 1 .291.233.035.035 0 0 1-.004.043l-.224.293-.001.002-.011.034a.11.11 0 0 0 0 .105q.05.087.113.165a.5.5 0 0 0 .075.068l.003.001.071.017Zm1.057-3.703s-.086.081-.145.053l-.002-.001a.01.01 0 0 1-.002-.013c.015-.388.211-.587.196-.85-.002-.034-.014-.166-.014-.19a.87.87 0 0 1 .276-.658c.254-.23.521-.199.546-.117q.148.045.262.148c.179.171.271.494.279.833.006.239.105.238.153.456.034.11.03.229-.009.338-.006.021-.148-.027-.237-.237-.053-.128-.023-.562-.038-.646a.9.9 0 0 0-.151-.454c-.156-.17-.17-.287-.202-.293-.027-.005-.328.009-.646.42q-.105.163-.155.351c-.019.053-.001.091.039.16 0 0 .053.033-.075.503 0 0 .027.054.079-.011a1 1 0 0 0 .082-.165c.03-.055.065.037.027.131a.7.7 0 0 1-.262.243Zm2.759 2.536h.002s.006.045-.049.05a1.1 1.1 0 0 0-.441.24l-.005.005a.053.053 0 0 1-.075-.004l-.215-.238s.019-.159.296-.281c.057-.032.11-.1-.021-.049a.83.83 0 0 1-.413.048c-.05-.01-.158-.1-.134-.197.025-.097.147-.361.118-.575-.03-.219.014-.497-.043-.54-.026-.019-.14.036-.136.324.006.434-.175.389-.182.849-.005.376.307.843.348 1.488l.003.023a.093.093 0 0 1-.092.093H5.375a.09.09 0 0 1-.092-.092l.001-.017c.028-.568.256-1.013.303-1.463.039-.376-.244-.452-.201-.817.036-.301.01-.35-.063-.381s-.085.28-.109.49c-.004.158.028.315.092.46a.5.5 0 0 1-.08.362.2.2 0 0 1-.06 0c-.031-.007-.081-.004-.158-.018-.045-.009-.067.039-.051.047q.09.04.172.095.018.011.034.026c.021.02.04.047.017.07-.107.118-.221.275-.292.343l-.005.005a.046.046 0 0 1-.067-.005 2 2 0 0 0-.414-.323.05.05 0 0 1-.037-.056q.042-.147.098-.289s.009-.049.067-.034a.04.04 0 0 0 .045-.029c.013-.041.123-.128.118-.254q.018-.19.067-.375c.092-.283.174-.489.189-.582s.145-.561.357-.681a.37.37 0 0 1 .219-.065c.092.015.246.219.269.237.009.006.366-.004.426.007.043.008.056-.017.042-.061-.006-.057-.155-.16-.178-.174s-.2.089-.257.088c-.03-.001.054-.113.187-.239a.03.03 0 0 1 .034 0c.07.037.139.142.156.128a.7.7 0 0 1 .19-.289c.107-.08.118-.08.157-.117.033-.031.006-.099-.042-.073a.22.22 0 0 1-.172.006c-.067-.027-.194-.128-.203-.224a.7.7 0 0 0-.083-.276c-.019-.029.014-.152.016-.163.012-.02.059.027.096.035.029.007.051-.004.053-.026.002-.016.066-.032.074-.022a.27.27 0 0 1-.029.187.4.4 0 0 1-.091.095c-.034.027-.03.053-.012.105s.125.116.15.127c.03.013.103.03.12.002.014-.024-.003-.037-.05-.056-.027-.007-.038-.04-.009-.041s.042.002.068-.001a.6.6 0 0 0 .154-.047s-.003.055.02.052a.08.08 0 0 0 .054-.068c.004-.034-.048-.107-.072-.101s-.007.067-.007.067l-.044.007a.2.2 0 0 1-.081-.012.2.2 0 0 0-.086.002c-.02.002-.039-.023.002-.029.03-.004.05-.035.076-.019.022.013.052-.018.057-.033.008-.02-.023-.041-.047-.039s-.043.021-.074.011c-.011-.004-.041-.024-.037-.04.003-.016.021-.04.025-.059q.015-.075.017-.151a.14.14 0 0 0-.072-.096.1.1 0 0 0-.027-.011c-.045-.016-.172.038-.12-.04q.079-.117.186-.21c.117-.097.241-.155.277-.135.017.01.037.058.091.125.116.145.17.33.15.515-.007.073-.038.121-.052.202a.4.4 0 0 1-.048.165 1 1 0 0 1-.077.112.5.5 0 0 0-.014.149c.008.104.036.16-.158.367-.061.066-.152.099-.168.227a2 2 0 0 0-.016.227c.015.087.116.049.121.004a.54.54 0 0 1 .145-.351c.25-.176.215-.336.254-.336.027 0 .17.15.17.15s.267.108.292.115c.136.038.441.142.551.816 0 0 .172.638.227 1.008a.25.25 0 0 0 .189.18l.062-.001s.061-.01.072.089zM6.644 4.494l.07-.019q.048-.016.044-.047c-.002-.021-.034-.024-.062-.031-.029-.007-.058-.013-.054-.023.004-.009.026-.01.039-.011l.076-.001q.024-.001.02-.022a.2.2 0 0 0-.097-.042.7.7 0 0 0-.149.029.14.14 0 0 0-.037.044c0 .007.017.011.019.026s-.02.035-.012.061c.014.048.102.068.118.068.015 0 .025-.031.025-.031Zm.167 1.17c-.022.014-.165.078-.178.174a.04.04 0 0 0 .02.046c.044-.009.312.01.364.011.111.014.058-.071.03-.093-.028-.021-.214-.153-.236-.138m-.364 1.003c.009-.09.022-.394.019-.447-.003-.065-.121-.08-.125-.016a8 8 0 0 0-.007.474.058.058 0 0 0 .114-.011Zm.63-.166c.073.003.09-.122.031-.126a2 2 0 0 0-.456.013c-.04.017-.027.111.023.117s.33-.007.402-.004"/></svg>