<svg xmlns="http://www.w3.org/2000/svg" xml:space="preserve" fill-rule="evenodd" stroke-linejoin="round" stroke-miterlimit="2" clip-rule="evenodd" viewBox="0 0 15 15"><path fill="#fff" d="M.321 14.5V.5a.5.5 0 0 1 .5-.5h13.358a.5.5 0 0 1 .5.5v14a.5.5 0 0 1-.5.5H.821a.5.5 0 0 1-.5-.5"/><path fill="#c82128" fill-rule="nonzero" d="M13.922.757H1.078v13.486h12.844zm-.514 12.972H1.592V1.27h11.816z"/><path fill="#233485" d="M2.234 10.39h10.532v2.697H2.234zm3.077 2.376h.931l-1.053-2.055h-.94l-1.053 2.055h.931l.099-.216h.984l.099.216Zm-.375-.757h-.431l.21-.456zm6.868-1.298h-.924v2.055h.924zm-5.439 2.055H8.11v-.594h-.807v-1.461h-.938zm4.308-1.027c0-.568-.457-1.028-1.02-1.028H8.288v2.055h1.365c.563 0 1.02-.46 1.02-1.027m-.848 0c0 .247-.187.447-.418.447h-.198v-.893h.198c.231 0 .417.2.417.447ZM8.52 1.913h.747L5.501 7.606h3.738l.23.345H5.271l-.285.427a6 6 0 0 0-.213.34h5.204c.095.129.13.219.167.327H4.619c-.021.07-.034.157-.038.227-.019.34.117.663.307.86h-.821a1.6 1.6 0 0 1-.222-.84c.006-.321.137-.527.333-.821L8.52 1.912Zm-1.968 0h.765L3.169 8.155c-.264.395-.423.701-.434 1.157-.006.26.062.508.131.691q.027.072.054.13h-.648c-.099-.225-.23-.44-.23-.93 0-.43.145-.699.453-1.162l4.056-6.128Zm3.563 8.22c.19-.198.326-.521.307-.86-.016-.291-.193-.577-.405-.894L7.638 4.811l.364-.547 2.806 4.209c.196.294.326.499.332.821a1.6 1.6 0 0 1-.222.84zm1.971 0a2 2 0 0 0 .053-.129c.069-.182.152-.432.146-.692-.011-.456-.17-.762-.434-1.157L8.623 3.334l.373-.56 3.512 5.267c.308.463.453.732.453 1.162 0 .489-.13.705-.23.93z"/><path fill="#2490d7" fill-rule="nonzero" d="M5.186 8.075h4.365l.345.518h-5.05c.05-.081.341-.518.341-.518m2.268-6.163L3.28 8.195c-.261.391-.411.682-.421 1.118-.006.254.072.57.19.819h.885a1.66 1.66 0 0 1-.211-.841c.007-.345.149-.567.345-.86l4.315-6.519h-.927Zm3.614 8.22c.143-.262.217-.536.211-.841-.007-.345-.149-.567-.345-.86L8.081 4.146l.464-.701 3.176 4.75c.261.391.411.682.422 1.118.006.254-.072.57-.19.819z"/></svg>