<?xml version="1.0" encoding="UTF-8" standalone="no"?><!DOCTYPE svg PUBLIC "-//W3C//DTD SVG 1.1//EN" "http://www.w3.org/Graphics/SVG/1.1/DTD/svg11.dtd"><svg width="100%" height="100%" viewBox="0 0 15 15" version="1.1" xmlns="http://www.w3.org/2000/svg" xmlns:xlink="http://www.w3.org/1999/xlink" xml:space="preserve" xmlns:serif="http://www.serif.com/" style="fill-rule:evenodd;clip-rule:evenodd;stroke-linejoin:round;stroke-miterlimit:2;"><path d="M0.09,6.719c0.042,-0.039 -0.089,-0.102 -0.089,-0.31c0,-0.421 0.429,-0.494 0.592,-0.464c0.15,0.028 0.265,0.074 0.355,0.125c0.298,-0.15 0.57,-0.175 0.807,-0.142c0.398,0.055 0.704,0.304 0.89,0.502c0.503,0.001 0.799,0.219 0.981,0.43l0,-0.464c0,-0.635 1.077,-0.641 1.077,0.001c0.97,0 1.192,0.019 1.435,0.304c0.267,-0.049 0.564,0.048 0.564,0.048l0.945,-0.051c-0.009,-0.624 0.922,-0.595 0.922,-0.043c0,0.033 0.056,0.049 0.136,0.049l0,-0.002l0.197,0c0.23,0 0.044,-0.431 0.58,-0.431l0.451,-0c0.155,0 0.289,0.021 0.403,0.057c0.276,0.088 0.503,0.37 0.503,0.37c0.207,-0.031 0.383,0.005 0.383,0.005c0,-0.578 0.956,-0.554 0.956,0.015c0,0 0.503,-0.036 0.798,-0.035c0.176,0 0.361,0.013 0.491,0.143c0.141,-0.079 1.531,-0.406 1.531,0.898c0,0.652 -0.468,1.04 -1.008,1.04c-0.178,0 -0.4,-0.076 -0.4,-0.076c-0.243,0.132 -0.513,0.033 -0.513,0.033l-0.462,0.015c-0.292,0.032 -0.522,-0.008 -0.681,-0.127c-0.086,0.11 -0.298,0.209 -0.555,0.097c-0.685,0.227 -1.178,-0.352 -1.178,-0.352c-0.049,0.225 -0.249,0.394 -0.489,0.394l-0.24,0c-0.102,0 -0.196,-0.03 -0.275,-0.082c-0.341,0.224 -0.85,-0.056 -0.85,-0.056c0,0 -0.084,0.198 -0.449,0.13c-0.03,0.006 -0.062,0.009 -0.094,0.009l-0.22,0c-0.081,0 -0.158,-0.019 -0.226,-0.054c-0.068,0.035 -0.145,0.054 -0.226,0.054l-0.22,0c-0.032,0 -0.063,-0.003 -0.093,-0.009c-0.03,0.006 -0.061,0.009 -0.093,0.009l-0.098,0l-0.176,-0.027c-0.059,0.059 -0.598,0.033 -0.696,-0.065c-0.404,0.173 -0.836,0.12 -1.082,0.087c-0.106,0.325 -0.5,0.515 -0.856,0.241c-0.156,0.132 -0.357,0.169 -0.563,0.06c-0.229,0.098 -0.663,-0.059 -0.695,-0.414c-0.04,0.021 -0.083,0.037 -0.127,0.046c-0.113,0.262 -0.331,0.531 -0.698,0.394c-0.152,0.037 -0.338,0.021 -0.494,-0.15c-0.12,-0.132 -0.123,-0.32 -0.122,-0.487c-0.116,0.057 -0.354,0.132 -0.354,0.132c-0.233,0 -0.434,-0.16 -0.487,-0.387l-0.252,-1.086c-0.019,-0.084 -0.029,-0.291 0.061,-0.374Z" style="fill:#f4f4f4;"/><path d="M3.159,7.916c0.285,-0.992 -0.79,-0.892 -0.79,-0.893c-0.681,-0.698 -1.309,-0.114 -1.441,-0.036l-0.003,-0.002c0.136,-0.184 0.07,-0.36 0.07,-0.36c0.869,-0.614 1.43,0.322 1.43,0.322c0.453,-0.066 0.701,0.091 0.836,0.256c0.265,0.324 0.124,0.673 0.124,0.673c0.352,0.219 0.13,0.693 0.114,0.728l-0.005,0c0.046,-0.543 -0.334,-0.688 -0.334,-0.688Zm-1.356,0.059c0,0 0.276,-0.335 0.589,-0.029c0,0 0.211,-0.257 0.541,-0.109c0.149,0.067 0.367,0.285 0.128,0.749l-0.005,0c-0.002,-0 0.098,-0.393 -0.188,-0.572c-0.115,-0.072 -0.326,-0.057 -0.538,0.175c0,0 -0.1,-0.185 -0.269,-0.134c0,0 0.021,0.272 -0.148,0.548l-0.005,0c0,0 0.099,-0.424 -0.105,-0.628Zm-1.035,0.091l-0.252,-1.086c0.407,-0.276 0.044,-0.506 -0.016,-0.539l0,-0.004c0.611,0.116 0.239,0.618 0.239,0.618l0.234,0.672c0.252,-0.093 0.392,-0.081 0.492,-0.044c0.529,0.195 0.182,0.839 0.155,0.903l-0.005,0c0.036,-0.36 -0.013,-0.591 -0.201,-0.675c-0.294,-0.131 -0.647,0.155 -0.647,0.155Zm3.358,-1.67l0.077,0.001l-0.002,2.192l-0.076,0l0,-2.193Z" style="fill:#d71921;"/><path d="M5.236,6.771c0.094,0 0.175,0.009 0.242,0.027c0.067,0.018 0.122,0.044 0.165,0.077c0.042,0.032 0.075,0.074 0.095,0.123c0.021,0.052 0.031,0.107 0.03,0.163c0,0.034 -0.005,0.068 -0.016,0.101c-0.011,0.033 -0.028,0.064 -0.049,0.091c-0.024,0.03 -0.052,0.056 -0.084,0.076c-0.037,0.024 -0.077,0.043 -0.119,0.057c0.209,0.045 0.314,0.156 0.314,0.334c0.001,0.059 -0.011,0.118 -0.035,0.173c-0.024,0.052 -0.059,0.099 -0.102,0.136c-0.045,0.038 -0.1,0.068 -0.166,0.089c-0.066,0.021 -0.141,0.032 -0.225,0.032l-0.542,0l0,-1.478l0.491,0Zm0.046,1.288c0.054,0 0.1,-0.006 0.137,-0.019c0.034,-0.011 0.065,-0.028 0.091,-0.052c0.023,-0.021 0.041,-0.048 0.051,-0.077c0.011,-0.031 0.016,-0.063 0.016,-0.096c0,-0.07 -0.024,-0.125 -0.071,-0.165c-0.048,-0.04 -0.123,-0.06 -0.225,-0.06l-0.297,0l0,0.469l0.298,-0Zm-0.298,-1.1l0,0.462l0.24,0c0.103,0 0.179,-0.02 0.23,-0.06c0.051,-0.04 0.076,-0.097 0.076,-0.171c0,-0.081 -0.024,-0.14 -0.071,-0.177c-0.048,-0.036 -0.122,-0.054 -0.223,-0.054l-0.251,0Zm0.945,0.389c0.118,-0.11 0.259,-0.165 0.423,-0.165c0.06,0 0.114,0.01 0.161,0.029c0.045,0.018 0.085,0.046 0.118,0.083c0.033,0.037 0.057,0.08 0.073,0.127c0.017,0.053 0.026,0.108 0.025,0.163l0,0.665l-0.098,0c-0.021,0 -0.037,-0.003 -0.048,-0.01c-0.011,-0.007 -0.02,-0.02 -0.028,-0.04l-0.022,-0.085c-0.025,0.023 -0.052,0.044 -0.079,0.064c-0.025,0.018 -0.052,0.034 -0.08,0.048c-0.029,0.013 -0.059,0.023 -0.089,0.029c-0.035,0.007 -0.07,0.01 -0.105,0.01c-0.04,0 -0.08,-0.006 -0.118,-0.017c-0.035,-0.011 -0.067,-0.029 -0.095,-0.053c-0.027,-0.024 -0.049,-0.054 -0.063,-0.088c-0.015,-0.035 -0.023,-0.076 -0.023,-0.123c0,-0.041 0.011,-0.082 0.032,-0.118c0.022,-0.038 0.057,-0.073 0.107,-0.103c0.049,-0.03 0.115,-0.056 0.196,-0.076c0.081,-0.02 0.181,-0.031 0.3,-0.034l0,-0.07c0,-0.075 -0.016,-0.131 -0.048,-0.168c-0.032,-0.037 -0.079,-0.055 -0.142,-0.055c-0.042,0 -0.078,0.005 -0.107,0.016c-0.026,0.009 -0.051,0.021 -0.075,0.034l-0.057,0.034c-0.015,0.01 -0.034,0.016 -0.052,0.016c-0.014,0 -0.027,-0.004 -0.038,-0.012c-0.011,-0.008 -0.019,-0.018 -0.026,-0.029l-0.041,-0.072Zm0.585,0.443c-0.067,0.002 -0.133,0.008 -0.199,0.019c-0.054,0.01 -0.098,0.023 -0.131,0.038c-0.034,0.015 -0.058,0.034 -0.072,0.055c-0.014,0.02 -0.022,0.045 -0.022,0.07c-0.001,0.022 0.003,0.043 0.012,0.063c0.007,0.017 0.019,0.032 0.033,0.043c0.015,0.011 0.031,0.02 0.049,0.025c0.02,0.005 0.041,0.008 0.062,0.008c0.057,0 0.107,-0.011 0.148,-0.032c0.045,-0.024 0.086,-0.056 0.121,-0.094l0,-0.194Zm0.607,-0.451c0.022,-0.023 0.045,-0.044 0.07,-0.063c0.024,-0.019 0.05,-0.035 0.077,-0.049c0.028,-0.014 0.057,-0.024 0.087,-0.032c0.033,-0.008 0.067,-0.012 0.101,-0.011c0.057,0 0.108,0.01 0.151,0.029c0.042,0.018 0.08,0.046 0.11,0.081c0.031,0.037 0.054,0.08 0.067,0.126c0.016,0.052 0.023,0.107 0.023,0.162l0,0.666l-0.22,0l0,-0.666c0,-0.07 -0.016,-0.125 -0.049,-0.164c-0.033,-0.039 -0.082,-0.058 -0.148,-0.058c-0.048,-0 -0.095,0.011 -0.137,0.034c-0.044,0.024 -0.084,0.055 -0.118,0.092l0,0.763l-0.22,0l0,-1.047l0.133,0c0.03,0 0.049,0.014 0.057,0.042l0.015,0.097Zm1.094,-0.611l0,0.88l0.047,0c0.013,0 0.025,-0.002 0.037,-0.006c0.012,-0.006 0.022,-0.015 0.03,-0.026l0.293,-0.336c0.009,-0.012 0.021,-0.023 0.034,-0.031c0.015,-0.007 0.031,-0.011 0.047,-0.01l0.2,0l-0.353,0.398c-0.019,0.025 -0.042,0.047 -0.068,0.064c0.013,0.009 0.025,0.02 0.036,0.032c0.011,0.013 0.021,0.026 0.03,0.041l0.377,0.512l-0.197,0c-0.016,0 -0.031,-0.003 -0.046,-0.009c-0.014,-0.007 -0.026,-0.019 -0.033,-0.032l-0.303,-0.41c-0.01,-0.016 -0.021,-0.026 -0.031,-0.03c-0.01,-0.004 -0.026,-0.007 -0.046,-0.007l-0.054,0l0,0.488l-0.221,0l0,-1.519l0.221,0Zm1.719,0.041c0.096,0 0.18,0.011 0.251,0.034c0.071,0.023 0.129,0.054 0.175,0.095c0.046,0.04 0.081,0.09 0.103,0.147c0.023,0.06 0.035,0.125 0.034,0.189c0.001,0.066 -0.011,0.132 -0.036,0.194c-0.023,0.058 -0.06,0.109 -0.107,0.151c-0.047,0.042 -0.106,0.075 -0.176,0.099c-0.07,0.024 -0.152,0.035 -0.245,0.035l-0.22,0l0,0.535l-0.24,0l0,-1.478l0.46,-0Zm-0,0.753c0.048,0.001 0.095,-0.006 0.141,-0.021c0.038,-0.012 0.072,-0.032 0.102,-0.058c0.027,-0.025 0.048,-0.056 0.061,-0.091c0.014,-0.038 0.021,-0.079 0.02,-0.119c0.001,-0.04 -0.006,-0.079 -0.02,-0.116c-0.013,-0.033 -0.033,-0.063 -0.06,-0.087c-0.029,-0.025 -0.064,-0.044 -0.101,-0.055c-0.041,-0.013 -0.088,-0.019 -0.143,-0.019l-0.22,0l0,0.565l0.22,-0Zm0.789,0.219c0.003,0.06 0.012,0.111 0.028,0.154c0.014,0.04 0.035,0.077 0.063,0.108c0.026,0.029 0.058,0.051 0.095,0.064c0.039,0.015 0.081,0.022 0.123,0.021c0.038,0.001 0.076,-0.004 0.112,-0.015c0.028,-0.009 0.056,-0.02 0.082,-0.033l0.06,-0.033c0.013,-0.009 0.029,-0.014 0.045,-0.015c0.016,-0.001 0.032,0.007 0.041,0.02l0.063,0.081c-0.025,0.03 -0.055,0.057 -0.088,0.078c-0.033,0.021 -0.068,0.039 -0.105,0.052c-0.037,0.013 -0.075,0.023 -0.114,0.029c-0.038,0.006 -0.076,0.009 -0.114,0.009c-0.069,0.001 -0.137,-0.012 -0.202,-0.036c-0.061,-0.024 -0.116,-0.06 -0.161,-0.107c-0.046,-0.047 -0.081,-0.106 -0.107,-0.175c-0.026,-0.07 -0.038,-0.15 -0.038,-0.241c-0.001,-0.069 0.011,-0.138 0.034,-0.203c0.022,-0.061 0.055,-0.117 0.099,-0.164c0.044,-0.047 0.097,-0.085 0.156,-0.11c0.061,-0.027 0.13,-0.041 0.208,-0.041c0.061,-0.001 0.121,0.01 0.178,0.031c0.053,0.02 0.102,0.051 0.142,0.092c0.041,0.042 0.073,0.093 0.093,0.148c0.022,0.058 0.033,0.125 0.033,0.2c0,0.034 -0.004,0.057 -0.011,0.069c-0.008,0.012 -0.021,0.017 -0.041,0.017l-0.672,-0Zm0.527,-0.136c0,-0.035 -0.005,-0.07 -0.016,-0.103c-0.01,-0.031 -0.026,-0.059 -0.047,-0.083c-0.021,-0.024 -0.047,-0.043 -0.076,-0.055c-0.033,-0.014 -0.069,-0.021 -0.105,-0.02c-0.08,0 -0.143,0.023 -0.189,0.069c-0.046,0.046 -0.075,0.11 -0.087,0.193l0.52,-0Zm0.552,-0.878l0,0.88l0.047,0c0.013,0 0.025,-0.002 0.037,-0.006c0.012,-0.006 0.022,-0.015 0.03,-0.026l0.293,-0.336c0.009,-0.012 0.021,-0.023 0.034,-0.031c0.015,-0.007 0.031,-0.011 0.047,-0.01l0.2,0l-0.353,0.398c-0.019,0.025 -0.042,0.047 -0.068,0.064c0.013,0.009 0.025,0.02 0.036,0.032c0.011,0.013 0.021,0.026 0.03,0.041l0.377,0.512l-0.197,0c-0.016,0 -0.031,-0.003 -0.046,-0.009c-0.014,-0.007 -0.026,-0.019 -0.033,-0.032l-0.303,-0.41c-0.01,-0.016 -0.021,-0.026 -0.031,-0.03c-0.01,-0.004 -0.026,-0.007 -0.046,-0.007l-0.054,0l0,0.488l-0.221,0l0,-1.519l0.221,0Zm0.753,0.618c0.118,-0.11 0.259,-0.165 0.423,-0.165c0.06,0 0.114,0.01 0.161,0.029c0.045,0.018 0.085,0.046 0.118,0.083c0.033,0.037 0.057,0.08 0.073,0.127c0.017,0.053 0.026,0.108 0.025,0.163l0,0.665l-0.099,0c-0.021,0 -0.037,-0.003 -0.048,-0.01c-0.011,-0.007 -0.02,-0.02 -0.028,-0.04l-0.022,-0.085c-0.025,0.023 -0.052,0.044 -0.079,0.064c-0.025,0.018 -0.052,0.034 -0.08,0.048c-0.029,0.013 -0.059,0.023 -0.089,0.029c-0.035,0.007 -0.07,0.01 -0.105,0.01c-0.04,0 -0.08,-0.006 -0.118,-0.017c-0.035,-0.011 -0.067,-0.029 -0.095,-0.053c-0.027,-0.024 -0.049,-0.054 -0.063,-0.088c-0.015,-0.035 -0.023,-0.076 -0.023,-0.123c0,-0.041 0.011,-0.082 0.032,-0.118c0.022,-0.038 0.057,-0.073 0.107,-0.103c0.049,-0.03 0.115,-0.056 0.196,-0.076c0.081,-0.02 0.181,-0.031 0.3,-0.034l0,-0.07c0,-0.075 -0.016,-0.131 -0.048,-0.168c-0.032,-0.037 -0.079,-0.055 -0.142,-0.055c-0.042,0 -0.078,0.005 -0.107,0.016c-0.026,0.009 -0.051,0.021 -0.075,0.034l-0.057,0.034c-0.016,0.01 -0.034,0.016 -0.052,0.016c-0.014,0 -0.027,-0.004 -0.038,-0.012c-0.011,-0.008 -0.019,-0.018 -0.026,-0.029l-0.041,-0.072Zm0.585,0.443c-0.067,0.002 -0.133,0.008 -0.199,0.019c-0.054,0.01 -0.098,0.023 -0.131,0.038c-0.034,0.015 -0.058,0.034 -0.072,0.055c-0.014,0.02 -0.022,0.045 -0.022,0.07c-0.001,0.022 0.003,0.043 0.012,0.063c0.007,0.017 0.019,0.032 0.033,0.043c0.015,0.011 0.031,0.02 0.049,0.025c0.02,0.005 0.041,0.008 0.062,0.008c0.057,0 0.107,-0.011 0.148,-0.032c0.045,-0.024 0.086,-0.056 0.121,-0.094l0,-0.194Zm0.853,-0.606c0.077,0 0.147,0.013 0.21,0.038c0.061,0.024 0.115,0.061 0.16,0.108c0.045,0.049 0.08,0.106 0.102,0.169c0.024,0.066 0.036,0.141 0.036,0.224c0,0.083 -0.012,0.157 -0.036,0.224c-0.022,0.063 -0.057,0.121 -0.102,0.17c-0.045,0.047 -0.1,0.084 -0.16,0.108c-0.063,0.025 -0.133,0.038 -0.21,0.038c-0.078,0 -0.148,-0.013 -0.211,-0.038c-0.061,-0.024 -0.116,-0.061 -0.161,-0.108c-0.046,-0.049 -0.081,-0.107 -0.103,-0.17c-0.024,-0.066 -0.036,-0.141 -0.036,-0.224c0,-0.083 0.012,-0.157 0.036,-0.224c0.022,-0.063 0.057,-0.121 0.103,-0.169c0.045,-0.047 0.1,-0.084 0.161,-0.108c0.063,-0.025 0.133,-0.038 0.211,-0.038Zm0,0.906c0.095,0 0.165,-0.032 0.211,-0.095c0.046,-0.063 0.069,-0.154 0.069,-0.271c0,-0.118 -0.023,-0.209 -0.069,-0.273c-0.046,-0.064 -0.116,-0.096 -0.211,-0.096c-0.096,0 -0.167,0.032 -0.213,0.096c-0.046,0.064 -0.07,0.155 -0.07,0.273c0,0.118 0.023,0.208 0.07,0.271c0.047,0.063 0.118,0.095 0.213,0.095Z" style="fill:#231f20;"/></svg>