<svg xmlns="http://www.w3.org/2000/svg" xml:space="preserve" fill-rule="evenodd" stroke-linejoin="round" stroke-miterlimit="2" clip-rule="evenodd" viewBox="0 0 15 15"><path fill="#f4f4f4" d="M1.32 10.84c.086.047-.29-.152-.554-.409A2.52 2.52 0 0 1 0 8.615a2.54 2.54 0 0 1 1.831-2.436c.008-.257.07-.5.174-.719 0 0-.159-.055-.221-.1a.603.603 0 0 1-.129-.848.54.54 0 0 1 .541-.235c.203.029.376.142.624.34 0 0 .307-.622.833-.711 1.076-.182.832.712.832.712a1.83 1.83 0 0 1 .985 1.747h7.344c1.199 0 2.184 1.004 2.184 2.25s-.985 2.25-2.184 2.25H3.702a2.53 2.53 0 0 1-2.383-.024Z"/><path fill="#f7941e" fill-rule="nonzero" d="M3.234 10.365c-.928 0-1.684-.785-1.684-1.75s.755-1.75 1.684-1.75h9.582c.928 0 1.684.785 1.684 1.75s-.755 1.75-1.684 1.75z"/><path fill="#fff200" fill-rule="nonzero" d="M3.234 7.144c-.778 0-1.388.646-1.388 1.47 0 .825.61 1.47 1.388 1.47h9.582c.778 0 1.388-.646 1.388-1.47 0-.825-.61-1.47-1.388-1.47z"/><path d="M5.502 9.159a.2.2 0 0 0-.137-.06c-.117 0-.184.098-.184.196 0 .096.069.191.183.191a.2.2 0 0 0 .138-.06v.132a.4.4 0 0 1-.142.034.3.3 0 0 1-.305-.294c0-.161.125-.303.308-.303q.075 0 .139.033zm.488.233c0 .114-.086.196-.213.196-.128 0-.214-.082-.214-.196 0-.115.087-.197.214-.197s.213.082.213.197m-.31 0c0 .05.036.103.096.103s.096-.053.096-.103c0-.051-.036-.104-.096-.104s-.096.053-.096.104m.657.15a.14.14 0 0 1-.11.047c-.119 0-.187-.099-.187-.199 0-.098.069-.195.185-.195.042 0 .086.017.112.046l.001-.238h.116v.573h-.116zm.012-.151c0-.05-.036-.103-.096-.103s-.096.054-.096.103c0 .05.036.104.096.104s.096-.054.096-.104m.548.096v.089h-.386l.208-.281h-.175v-.089h.367l-.206.281zm.386-.079c0 .047.02.099.08.099.038 0 .062-.021.078-.05l.107.016c-.028.074-.099.115-.185.115-.126 0-.203-.081-.203-.193s.065-.2.197-.2c.133 0 .193.096.193.207zm.158-.065c-.006-.038-.032-.074-.077-.074-.046 0-.072.036-.078.074zm.301-.102c.024-.033.065-.046.107-.046.109 0 .141.07.141.156v.226h-.116v-.196c0-.044.003-.102-.063-.102-.069 0-.07.07-.07.114v.183h-.116v-.369h.116zm.462 0c.024-.033.065-.046.107-.046.109 0 .141.07.141.156v.226h-.116v-.196c0-.044.002-.102-.063-.102-.069 0-.07.07-.07.114v.183h-.116v-.369h.116zm.659.168c0 .047.02.099.08.099.038 0 .062-.021.078-.05l.107.016c-.028.074-.099.115-.185.115-.126 0-.203-.081-.203-.193s.065-.2.197-.2c.133 0 .193.096.193.207zm.158-.065c-.006-.038-.032-.074-.077-.074-.046 0-.072.036-.078.074zm-2.05.233v-.369h.116v.369zm.128-.518a.07.07 0 0 1-.07.07.07.07 0 0 1-.07-.07.07.07 0 0 1 .07-.07.07.07 0 0 1 .07.07m1.451.518v-.369h.116v.369zm.128-.518a.07.07 0 0 1-.07.07.07.07 0 0 1-.07-.07.07.07 0 0 1 .07-.07.07.07 0 0 1 .07.07m.928.183c.024-.033.065-.046.107-.046.109 0 .141.07.141.156v.226h-.116v-.196c0-.044.002-.102-.063-.102-.069 0-.07.07-.07.114v.183h-.116v-.369h.116zm.766.053-.061-.026c-.019 0-.038.014-.038.032 0 .027.042.035.084.051s.084.042.084.106c0 .082-.073.131-.158.131a.2.2 0 0 1-.143-.062l.053-.062c.022.022.052.043.086.043.026 0 .046-.016.046-.04 0-.032-.04-.04-.081-.056s-.081-.038-.081-.097c0-.069.053-.12.129-.12.043 0 .098.012.131.038l-.05.061Zm.26.048.122-.135h.151l-.171.163.185.207h-.152l-.134-.157-.001.157h-.116v-.575h.116l.001.341Zm.655.066c0 .047.02.099.08.099.038 0 .062-.021.078-.05l.107.016c-.028.074-.099.115-.185.115-.126 0-.203-.081-.203-.193s.065-.2.197-.2c.133 0 .193.096.193.207zm.158-.065c-.006-.038-.032-.074-.077-.074-.046 0-.072.036-.078.074zm.745-.023a.12.12 0 0 0-.085-.036c-.066 0-.103.056-.103.11 0 .058.04.106.107.106q.048-.002.081-.035v.101l-.1.023a.197.197 0 0 1-.205-.196c0-.11.089-.198.211-.198l.094.023zm.182.089c0 .047.02.099.08.099.038 0 .062-.021.078-.05l.107.016c-.028.074-.099.115-.185.115-.126 0-.203-.081-.203-.193s.065-.2.197-.2c.133 0 .193.096.193.207zm.158-.065c-.006-.038-.032-.074-.077-.074-.046 0-.072.036-.078.074zm.301-.102c.024-.033.065-.046.107-.046.109 0 .141.07.141.156v.226h-.116v-.196c0-.044.002-.102-.063-.102-.069 0-.07.07-.07.114v.183h-.116v-.369h.116zm.278-.034h.132l.105.194.096-.194h.129l-.271.508h-.121l.102-.196-.173-.312Zm-3.157.369v-.369h.116v.369zm.129-.518a.07.07 0 0 1-.07.07.07.07 0 0 1-.07-.07.07.07 0 0 1 .07-.07.07.07 0 0 1 .07.07m.893.518v-.369h.116v.369zm.129-.518a.07.07 0 0 1-.07.07.07.07 0 0 1-.07-.07.07.07 0 0 1 .07-.07.07.07 0 0 1 .07.07"/><path fill="#ed1d24" d="M5.085 8.82V7.575h.463c.221 0 .37.086.37.324 0 .112-.036.205-.137.256.178.023.254.145.254.319 0 .261-.223.347-.451.347zm.324-.756h.036c.086 0 .175-.015.175-.121 0-.114-.101-.121-.188-.121h-.023v.241Zm0 .509h.041c.096 0 .258.005.258-.132 0-.15-.16-.136-.266-.136h-.033zM6.483 7.7a.168.168 0 1 1-.337 0 .168.168 0 0 1 .337 0m-.319.277h.301v.847h-.301zm1.336.471h-.633c0 .122.064.188.188.188.064 0 .111-.022.144-.078h.289a.35.35 0 0 1-.16.22.5.5 0 0 1-.271.071c-.281 0-.491-.159-.491-.451 0-.282.193-.453.469-.453.294 0 .464.182.464.471zm-.279-.173a.17.17 0 0 0-.17-.134c-.088 0-.16.046-.178.134zm1.019.453c-.053.084-.159.122-.258.122-.251 0-.428-.21-.428-.453s.173-.451.424-.451c.097 0 .2.036.263.111v-.48h.301v1.245h-.301zm-.375-.329c0 .107.071.19.193.19s.193-.082.193-.19a.184.184 0 0 0-.193-.191.184.184 0 0 0-.193.191M9 8.113c.058-.104.159-.15.276-.15h.058v.289a.24.24 0 0 0-.127-.028c-.167 0-.208.111-.208.256v.342h-.301v-.847h.301zm1.371.286c0 .287-.238.451-.51.451-.271 0-.51-.162-.51-.451s.238-.453.51-.453c.273 0 .51.164.51.453m-.704 0c0 .107.071.19.193.19s.193-.083.193-.19a.184.184 0 0 0-.193-.192.184.184 0 0 0-.193.192m1.108-.315c.069-.103.155-.137.273-.137.228 0 .319.144.319.352v.524h-.301V8.41c0-.081.013-.223-.135-.223-.122 0-.157.091-.157.197v.439h-.301v-.847h.301l.002.109Zm1.057.197.312-.306h.411l-.425.391.451.456h-.421l-.329-.345v.345h-.301V7.583h.301v.698Zm1.729.542h-.301l-.002-.094c-.053.084-.159.122-.258.122-.251 0-.428-.21-.428-.453s.173-.451.424-.451c.097 0 .2.036.263.111v-.082h.301v.847Zm-.677-.423c0 .107.071.19.193.19s.193-.083.193-.19a.184.184 0 0 0-.193-.192.184.184 0 0 0-.193.192"/><path fill-rule="nonzero" d="M4.161 7.39a2.05 2.05 0 0 0-.999-.712l.005-.004-.135-.034A2.04 2.04 0 0 0 .499 8.615c0 .554.218 1.071.615 1.458l.087.084.026-.118c.017-.078.044-.19.078-.323q.09.083.191.153a3.4 3.4 0 0 0 .028.483l.004.034.03.016A2.038 2.038 0 0 0 4.57 8.615c0-.446-.142-.87-.41-1.225"/><path fill="#ed1d24" d="M1.092 9.845a1.87 1.87 0 0 1-.454-1.231c0-.507.197-.983.555-1.341a1.89 1.89 0 0 1 1.611-.537l.051.007-.038.034a5.24 5.24 0 0 0-1.452 2.245c-.107.321-.185.619-.233.813l-.011.045zm1.444.666c-.3 0-.6-.072-.866-.209l-.011-.006-.001-.012a3.84 3.84 0 0 1 .241-1.779A4.3 4.3 0 0 1 3.11 6.817l.01-.008.013.004c.362.12.688.354.919.66.25.331.382.726.382 1.141 0 .507-.197.983-.555 1.341a1.9 1.9 0 0 1-1.341.556Z"/><path fill="#9e0b0f" fill-rule="nonzero" d="M2.21 10.178q-.293 0-.567-.066.006.102.014.172l.001.013.011.006a1.898 1.898 0 0 0 2.754-1.505 2.47 2.47 0 0 1-2.214 1.381"/><path fill="#c4161c" fill-rule="nonzero" d="M4.051 7.473a1.93 1.93 0 0 0-.919-.66l-.013-.004-.01.008a4 4 0 0 0-.381.366 1.255 1.255 0 0 0 1.487.548 2 2 0 0 0-.164-.258"/><path fill-rule="nonzero" d="M3.653 4.916q-.129 0-.252.024a.7.7 0 0 1 .115-.28.5.5 0 0 1 .289-.182q.002.012.008.024a.11.11 0 0 0 .142.052.107.107 0 0 0 .052-.142.11.11 0 0 0-.142-.052.1.1 0 0 0-.056.062c-.044.003-.24.03-.413.246a.65.65 0 0 0-.129.306c-.196.06-.372.165-.518.302a1.6 1.6 0 0 0-.17-.205.75.75 0 0 0-.328-.198l-.001-.017a.11.11 0 0 0-.122-.09.11.11 0 0 0-.09.122.106.106 0 0 0 .188.05.8.8 0 0 1 .266.212c.072.082.123.162.158.226a1.324 1.324 0 1 0 2.325.863c0-.73-.594-1.323-1.323-1.323"/><path fill="#fff" d="M.816 8.974c-.07-.354-.09-.843.168-1.276.489-.82 1.504-.897 1.504-.897l.056.09A2.12 2.12 0 0 0 .816 8.973ZM4.831 6.24a1.18 1.18 0 1 1-2.358 0 1.18 1.18 0 0 1 2.358 0"/><path d="M3.093 8.553a.44.44 0 1 1-.88 0 .44.44 0 0 1 .88 0m.163 1.287c0 .185-.197.334-.44.334s-.44-.149-.44-.334c0-.184.197-.334.44-.334s.44.15.44.334m.984-1.021c.097.047.097.249 0 .453-.098.204-.256.331-.353.284s-.097-.249 0-.453c.098-.204.256-.331.353-.284M1.646 8.01c-.151.177-.385.227-.521.11-.136-.116-.124-.354.028-.532.151-.177.385-.227.521-.11.136.116.124.354-.028.532m.168-.846c-.159.067-.31.068-.339.002-.028-.066.078-.175.237-.242s.31-.068.339-.002c.028.066-.078.175-.237.242M.921 8.748c.011.207-.038.378-.108.382s-.137-.161-.148-.368.038-.378.108-.381.137.161.148.368Zm3.125-.873c.038.164-.028.319-.148.347s-.248-.082-.286-.246.028-.319.147-.347c.12-.028.248.082.286.246Zm.408-1.341c.017.066-.037.137-.121.159s-.165-.015-.182-.081.037-.137.121-.159.165.015.182.081m-1.514.16-.044.066s-.005-.113.073-.163c.079-.05.212-.037.212-.037s-.051.006-.082.019-.046.023-.046.023.281.239.649.249.793-.146.793-.146l-.081.068s-.147.597-.849.477c-.474-.081-.58-.597-.58-.597s-.02.012-.044.041Zm.693-.621c.06.177.048.342-.028.368s-.187-.097-.247-.274a.6.6 0 0 1-.038-.23l.103.009-.074-.118a.1.1 0 0 1 .036-.029c.076-.026.187.097.247.274Zm.788-.229c.07.156.083.302.03.326s-.153-.083-.223-.239a.8.8 0 0 1-.057-.181l.088.007-.081-.13a.04.04 0 0 1 .021-.021c.053-.024.153.083.223.239Z"/><path fill="#ed1d24" d="M4.429 6.532c.012.046-.032.097-.099.114-.066.017-.13-.006-.142-.052s.033-.097.099-.114.13.006.142.052m-1.246.379s.214-.009.276.076.079.117.079.117-.029-.077-.026-.077.113-.001.159.053a.3.3 0 0 1 .062.126s-.205.017-.348-.07c-.158-.097-.202-.225-.202-.225"/><path fill="#fff" fill-rule="nonzero" d="M4.317 6.528c.005.018-.011.038-.034.044s-.046-.004-.051-.022.011-.038.034-.044.046.004.051.022"/></svg>