<svg xmlns="http://www.w3.org/2000/svg" xmlns:xlink="http://www.w3.org/1999/xlink" xml:space="preserve" fill-rule="evenodd" stroke-linejoin="round" stroke-miterlimit="2" clip-rule="evenodd" viewBox="0 0 15 15"><path fill="#f4f4f4" d="M14.5 14.216H.5a.514.514 0 0 1-.5-.501l.003-1.432a.5.5 0 0 1 .5-.499H14.5a.5.5 0 0 1 .5.5v1.432a.5.5 0 0 1-.5.5M2 11.118V1.284a.5.5 0 0 1 .5-.5h10a.5.5 0 0 1 .5.5v9.834a.5.5 0 0 1-.5.5h-10a.5.5 0 0 1-.5-.5"/><path fill="url(#a)" fill-rule="nonzero" d="M2.5 1.284h10v9.834h-10z"/><path fill="url(#b)" fill-rule="nonzero" d="M3.281 1.46c-.194 0-.321.164-.351.393 0 0-.25 1.313-.25 4.1 0 2.789.25 4.613.25 4.613.023.221.157.393.351.393h8.656c.193 0 .347-.153.35-.393 0 0-.096-2.137-.096-4.224s.096-4.489.096-4.489c.005-.214-.157-.393-.35-.393z"/><path fill="url(#c)" d="m8.142 2.464.032-.07c.832.094 1.933.483 2.414.777.203-.064.41-.07.786-.103 0 0-.055.227-.466.508.102.273-.143 1.78-.344 2.181-.009-.631-.065-1.427-.299-1.772-.618.362-.807.391-1.478.794l.033-.075c.352-.384.505-.546.737-.886-.62.034-1.519.108-2.162.249l.034-.069c.583-.284 1.666-.566 2.218-.639-.135-.19-1.232-.783-1.505-.897ZM4.045 7.15l.032-.07c.097.441.172.903.364 1.241.244-.048.5-.151.782-.193l-.033.071a2.7 2.7 0 0 0-.335.645c.266.251.594.351.923.479l-.032.07a3.7 3.7 0 0 1-.983-.157c-.023.21.038.37.086.562l-.032.07a2.6 2.6 0 0 1-.585-.828 7 7 0 0 1-.768-.422l.031-.069c.164-.07.342-.078.546-.134-.072-.402-.05-.761.004-1.264ZM6.42 4.916c.761.107 1.474.415 1.655.522l-.032.069c-.799-.14-1.22-.125-1.518-.098-.297.029-.358.066-.358.066-.171.375-.272.987-.313 1.213l-.032.07c-.146-.351-.357-1.053-.357-1.053-.403.216-1.331 1.088-1.331 1.088.512-1.021 1.029-1.487 1.029-1.487-.178-.179-.645-.271-.986-.285l.031-.069c.214-.063.655-.089.95-.103.349-.011.561.01.561.01.311-.248.776-.465.939-.488 0 0-.132.236-.238.547Zm1.245 4.247c.277-.131.566-.357.803-.52l-.033.07c-.24.242-.448.445-.735.668.018.099.081.142.101.212l-.033.07a1.8 1.8 0 0 1-.418.025c-.306.181-.718.313-1.03.387l.032-.069c.146-.099.353-.206.508-.347a2.1 2.1 0 0 1-.554-.191l.032-.07h.222c.196.002.412.004.6-.048.178-.2.316-.372.478-.592z"/><path fill="#fff" d="M10.297 3.915c-.617.363-.806.393-1.477.795a7 7 0 0 0 .769-.959c-.619.033-1.518.107-2.16.25.559-.298 1.667-.63 2.251-.709-.136-.187-1.233-.782-1.506-.896.869.067 1.931.392 2.446.707.202-.063.413-.066.79-.1-.096.165-.1.26-.47.506.103.274-.142 1.781-.345 2.18-.007-.63-.062-1.427-.298-1.773ZM5.778 9.322a3.7 3.7 0 0 1-.981-.157c-.025.233-.009.41.053.632a2.6 2.6 0 0 1-.586-.828 7 7 0 0 1-.769-.422 4 4 0 0 1 .577-.203c-.071-.401-.05-.761.005-1.264.103.475.195.817.397 1.171l.749-.123a2.8 2.8 0 0 0-.337.647c.281.263.537.416.891.547Zm.923-5.013a2 2 0 0 0-.273.535c.914.124 1.648.593 1.648.593-.799-.142-1.22-.124-1.519-.097-.296.028-.357.063-.357.063-.216.472-.345 1.284-.345 1.284-.145-.351-.356-1.053-.356-1.053-.403.216-1.331 1.088-1.331 1.088.51-1.022 1.027-1.486 1.027-1.486-.178-.18-.645-.27-.987-.285.177-.072.632-.157.982-.173.35-.01.562.01.562.01.312-.246.786-.454.949-.478Zm.97 4.379.027.404a5 5 0 0 0 .771-.45c-.24.243-.449.445-.737.668l.069.282c-.11.022-.259.032-.419.026-.306.181-.717.313-1.029.388.186-.119.349-.242.541-.416a2.1 2.1 0 0 1-.555-.192c.3 0 .545-.032.853-.118.179-.2.318-.372.479-.591Z"/><path d="m.506 12.346-.004-.013h.696c.243.006.501.09.501.315 0 .135-.115.254-.289.3.234.07.358.197.358.37 0 .276-.328.372-.638.372H.499l.001-.014c.021-.174.021-.578.021-.699l-.016-.632Zm.487.138-.126.01-.011.484.011.552.159.001q.391-.001.392-.227a.2.2 0 0 0-.045-.124c-.065-.079-.191-.125-.336-.121H.963l.077-.191c.125.008.227-.024.277-.084a.15.15 0 0 0 .035-.101c0-.143-.096-.197-.36-.199Zm1.926-.15h.319l-.004.013-.017.632c0 .121.002.525.021.699v.014l-.256-.003-.579-.854a.5.5 0 0 1-.075-.147c0 .324 0 .659.018.99v.014h-.318l.003-.014c.017-.174.017-.578.017-.699 0-.131-.005-.49-.016-.632v-.013l.358.002c.111.139.432.632.432.637.093.136.112.163.132.216l-.024-.512zm.674.013v-.013h.596c.283.006.622.078.622.393 0 .277-.242.408-.739.408l-.053-.001-.071-.004c.001.183.008.422.021.547l.002.014h-.378v-.014c.019-.174.019-.578.019-.699 0-.131-.005-.49-.017-.632Zm.466.151-.108.008-.004.281.001.172.031.003.075.004c.185 0 .406-.043.406-.239a.2.2 0 0 0-.042-.122c-.059-.074-.182-.11-.359-.107m1.473-.151v-.013h.594c.284.006.625.078.625.393 0 .277-.244.408-.741.408l-.055-.001-.068-.004c0 .183.007.422.019.547l.002.014H5.53v-.014a11 11 0 0 0 .002-1.331Zm.465.151-.107.008-.004.281.002.172.031.003.075.004c.182 0 .403-.043.403-.239a.2.2 0 0 0-.041-.122c-.059-.074-.183-.11-.36-.107Zm1.256-.164h.258l.602 1.358H7.74l-.004-.006-.12-.312-.047-.002-.222-.002-.268.004-.108.31-.003.007h-.322l.006-.017a38 38 0 0 0 .595-1.334zm.094.4-.2.461.2.003.165-.002.031-.001zm.917-.387-.001-.013h.592c.286.006.625.08.625.393 0 .179-.101.295-.309.358l.01.01.394.579.01.018-.407-.003a9 9 0 0 0-.421-.702l-.015-.025.026.005.08.004c.136-.007.283-.087.283-.243a.2.2 0 0 0-.04-.122c-.058-.074-.182-.11-.358-.107l-.103.006c-.009.17-.012.38-.012.475 0 .121.001.523.022.699l.002.014h-.38v-.014c.021-.174.021-.578.021-.699 0-.131-.005-.49-.016-.632Zm1.496-.013h.372v.013a12 12 0 0 0 0 1.331l.002.014h-.375l.001-.014c.017-.175.019-.579.019-.699 0-.131-.007-.49-.017-.632zm.716.013-.002-.013h.698c.241.006.499.09.499.315 0 .135-.117.254-.29.3.236.07.361.197.361.37 0 .276-.329.372-.638.372h-.632l.003-.014c.019-.174.019-.578.019-.699 0-.131-.007-.49-.017-.632Zm.487.138-.124.01-.011.484c0 .082 0 .352.011.552l.157.001q.393-.001.394-.227a.2.2 0 0 0-.047-.124c-.065-.079-.19-.125-.336-.121h-.073l.076-.191c.124.008.229-.024.277-.084a.15.15 0 0 0 .036-.101c0-.143-.096-.197-.362-.199Zm1.708-.15h.008l.602 1.358h-.374l-.003-.008-.121-.312-.047-.001-.223-.004-.267.004q-.065.172-.107.312l-.002.008h-.323l.007-.018c.04-.086.52-1.131.596-1.336zm-.156.399-.199.46.199.004.166-.002.03-.001zm.872-.048c0-.238.23-.4.574-.4.133 0 .262.026.34.041l.076.014v.246l.001.051-.077-.032c-.084-.032-.232-.094-.384-.094-.207 0-.207.089-.207.12 0 .106.166.17.325.235.217.087.463.182.463.429 0 .263-.238.422-.637.422a1.6 1.6 0 0 1-.383-.056l-.025-.004-.043-.011v-.296l.063.03q.24.11.428.118.189.01.247-.059.027-.03.026-.084c0-.114-.172-.183-.337-.248-.212-.088-.45-.184-.45-.422"/><defs><linearGradient id="a" x1="0" x2="1" y1="0" y2="0" gradientTransform="matrix(0 10.55631 10.55631 0 7.5 1.038)" gradientUnits="userSpaceOnUse"><stop offset="0" stop-color="#007348"/><stop offset=".6" stop-color="#8dc9ab"/><stop offset="1" stop-color="#00925b"/></linearGradient><linearGradient id="b" x1="0" x2="1" y1="0" y2="0" gradientTransform="matrix(0 11.8624 11.8624 0 7.484 -1.2)" gradientUnits="userSpaceOnUse"><stop offset="0" stop-color="#00925b"/><stop offset=".3" stop-color="#8dc9ab"/><stop offset=".55" stop-color="#00925b"/><stop offset=".84" stop-color="#007348"/><stop offset="1" stop-color="#009c6d"/></linearGradient><linearGradient id="c" x1="0" x2="1" y1="0" y2="0" gradientTransform="matrix(0 -7.67637 -7.67637 0 9.384 10.008)" gradientUnits="userSpaceOnUse"><stop offset="0" stop-color="#00a678"/><stop offset="1" stop-color="#00925b"/></linearGradient></defs></svg>