<svg xmlns="http://www.w3.org/2000/svg" xml:space="preserve" fill-rule="evenodd" stroke-linejoin="round" stroke-miterlimit="2" clip-rule="evenodd" viewBox="0 0 15 15"><path fill="#f4f4f4" d="M8.598 6.651v-.426a.5.5 0 0 1 .5-.5h.586a.5.5 0 0 1 .5.5v.527c.236-.06.51-.102.787-.102.494 0 .904.153 1.195.408q.053.046.101.097l.056-.058a1.63 1.63 0 0 1 1.084-.446v-.426a.5.5 0 0 1 .5-.5h.592a.5.5 0 0 1 .5.5v3.057a.5.5 0 0 1-.366.482 4 4 0 0 1-1.029.121c-.511 0-.933-.15-1.232-.407-.039-.033-.111-.106-.111-.106s-.048.051-.073.074c-.261.247-.624.404-1.081.433v.321a.5.5 0 0 1-.5.5h-.592a.5.5 0 0 1-.5-.5v-.372a5 5 0 0 1-.721.056c-.516 0-.937-.151-1.235-.407-.32-.276-.516-.677-.516-1.204 0-.493.178-.894.468-1.176a1.63 1.63 0 0 1 1.084-.446ZM0 6.507c0-.368.203-.707.527-.881 0 0 1.8-.97 2.195-1.177a.77.77 0 0 1 .707-.001c.396.207 2.203 1.174 2.203 1.174a1 1 0 0 1 .53.883s.003 2.175-.002 2.649a.77.77 0 0 1-.375.649 299 299 0 0 1-2.327 1.346.77.77 0 0 1-.75 0A271 271 0 0 1 .375 9.803.78.78 0 0 1 0 9.153c-.004-.474 0-2.647 0-2.647Z"/><path fill="#3f3f42" d="M9.684 9.282a3.5 3.5 0 0 1-.888.103c-.755 0-1.251-.393-1.251-1.112 0-.683.465-1.124 1.142-1.124.151 0 .314.018.411.066v-.991h.586v3.057Zm-.586-1.559a.9.9 0 0 0-.363-.066c-.356 0-.592.218-.592.598 0 .405.254.634.671.634.073 0 .187 0 .284-.024zM14.5 9.282c-.26.073-.598.103-.894.103-.749 0-1.251-.393-1.251-1.112 0-.683.465-1.124 1.142-1.124.157 0 .314.018.411.066v-.991h.592v3.057Zm-.592-1.559a.9.9 0 0 0-.356-.066c-.363 0-.598.218-.598.598 0 .405.26.634.677.634.073 0 .181 0 .278-.024zm-3.299 0a1 1 0 0 1 .35-.054c.363 0 .61.205.61.574 0 .435-.278.634-.647.64v.502h.03c.761 0 1.215-.417 1.215-1.16 0-.677-.483-1.076-1.196-1.076-.363 0-.719.085-.955.181v2.87h.592V7.723Z"/><path fill="#dc0032" d="m.5 6.59 2.3 1.314a.1.1 0 0 1 .05.087v1.913a.1.1 0 0 0 .051.087c.183.103-.046-.031.135.071a.1.1 0 0 0 .098 0l.13-.074a.1.1 0 0 0 .051-.087V7.733a.1.1 0 0 0-.05-.087L.633 6.136l2.326-1.247a.25.25 0 0 1 .236 0l2.339 1.247-1.672.958a.1.1 0 0 0-.05.087v.139c0 .035.018.067.048.085l.135.082a.1.1 0 0 0 .102.001l1.566-.898-.002 2.564a.25.25 0 0 1-.125.216l-2.327 1.346a.25.25 0 0 1-.25 0L.626 9.37a.25.25 0 0 1-.125-.217V6.588Z"/></svg>