<svg xmlns="http://www.w3.org/2000/svg" xml:space="preserve" fill-rule="evenodd" stroke-linejoin="round" stroke-miterlimit="2" clip-rule="evenodd" viewBox="0 0 15 15"><path fill="#f4f4f4" d="M2.894 6.313h.326a.5.5 0 0 1 .5.5h.005a.5.5 0 0 1 .497-.5l.461-.003q.126 0 .236.058a.5.5 0 0 1 .229-.055h.44q.114.001.211.047.216-.066.493-.067c.149 0 .283.065.374.169a1.72 1.72 0 0 1 1.509.012l.007.003q.076.039.145.087a.5.5 0 0 1 .434-.251h.44q.114.001.211.047a1.6 1.6 0 0 1 .474-.068c.393.001.704.128.942.356q.047.045.089.095a1.4 1.4 0 0 1 .348-.263c.234-.126.497-.191.761-.188.245-.003.487.052.706.161a.5.5 0 0 1 .157-.094.5.5 0 0 1 .499-.477h.463a.5.5 0 0 1 .5.5v.121l.343.332a.498.498 0 0 1-.343.859v.231a.5.5 0 0 1 .219.123l.277.267a.503.503 0 0 1-.053.765 1 1 0 0 1-.345.164 1.4 1.4 0 0 1-.38.051c-.368-.001-.645-.116-.846-.305a1 1 0 0 1-.101-.111c-.103.21-.389.303-.389.303a1.8 1.8 0 0 1-.633.112 1.74 1.74 0 0 1-.959-.274.5.5 0 0 1-.432.248h-.463a.5.5 0 0 1-.5-.5h-.022a.5.5 0 0 1-.5.5h-.463a.5.5 0 0 1-.431-.246 2 2 0 0 1-.149.089l-.005.003a1.71 1.71 0 0 1-1.534 0l-.006-.003a1.44 1.44 0 0 1-.525-.466v.125a.5.5 0 0 1-.5.5h-.463a.5.5 0 0 1-.234-.058.5.5 0 0 1-.229.055h-.44a.5.5 0 0 1-.199-.041 1.4 1.4 0 0 1-.439.069c-.31 0-.567-.073-.777-.206a.5.5 0 0 1-.385.181H.5a.5.5 0 0 1-.5-.5v-.58c0-.134.053-.262.149-.356l.381-.376-.381-.377a.5.5 0 0 1-.148-.356v-.52a.5.5 0 0 1 .5-.5h1.894a.5.5 0 0 1 .5.5v.107Z"/><path fill="#243f90" d="m.5 8.19.481-.476v.657h1.464v.399H.5zm0-1.984h1.894v.399H.982v.597l-.481-.476v-.52Zm3.724.607.461-.003v1.957h-.44v-.249a.7.7 0 0 1-.278.204.9.9 0 0 1-.359.072q-.396 0-.623-.217-.228-.218-.228-.647V6.813h.462v1.055q0 .264.12.394t.343.13a.52.52 0 0 0 .395-.152q.147-.152.147-.438zm1.363.286.001.001q.2-.308.704-.308v.435a1 1 0 0 0-.107-.011q-.27 0-.422.155-.153.156-.153.449v.949h-.463V6.812h.44v.286Zm2.74.176a1 1 0 0 1 .136.517 1 1 0 0 1-.136.518.9.9 0 0 1-.376.357 1.22 1.22 0 0 1-1.086 0 .94.94 0 0 1-.376-.357 1 1 0 0 1-.135-.518.96.96 0 0 1 .511-.872 1.22 1.22 0 0 1 1.086 0 .94.94 0 0 1 .376.355m-.498.96a.6.6 0 0 0 .167-.443.6.6 0 0 0-.167-.443.61.61 0 0 0-.844 0 .6.6 0 0 0-.165.443q0 .274.165.443a.61.61 0 0 0 .844 0m2.653-1.227q.226.215.226.64v1.12h-.463V7.706q0-.256-.122-.387a.46.46 0 0 0-.348-.13.54.54 0 0 0-.403.152q-.148.152-.148.437v.989h-.463V6.81h.44v.254a.7.7 0 0 1 .289-.205c.125-.048.259-.072.393-.07q.374 0 .6.217Zm2.53.588a1.3 1.3 0 0 1 .009.341H11.96l-.314-.304h.943l-.007-.036a.53.53 0 0 0-.553-.439.54.54 0 0 0-.546.393 1 1 0 0 0-.01.415.52.52 0 0 0 .208.314.7.7 0 0 0 .427.126.8.8 0 0 0 .26-.04l.303.293a1 1 0 0 1-.116.055 1.3 1.3 0 0 1-.459.08 1.24 1.24 0 0 1-.574-.128.93.93 0 0 1-.384-.357 1 1 0 0 1-.135-.518c-.003-.18.042-.357.131-.515a.93.93 0 0 1 .367-.358 1.1 1.1 0 0 1 .526-.128c.18-.003.359.041.517.127a.9.9 0 0 1 .356.355q.084.152.112.324m1.21.812.277.267a.6.6 0 0 1-.183.087 1 1 0 0 1-.246.033q-.325 0-.504-.168-.178-.168-.178-.491v-.942h-.326v-.366h.326v-.446h.463v.446h.117l.379.366h-.496v.932a.3.3 0 0 0 .07.217.26.26 0 0 0 .204.074.5.5 0 0 0 .097-.009"/><path fill="#00b7b0" fill-rule="nonzero" d="m1.052 7.271.189.187-.208.205h1.201v-.392z"/></svg>