<svg xmlns="http://www.w3.org/2000/svg" xmlns:xlink="http://www.w3.org/1999/xlink" xml:space="preserve" fill-rule="evenodd" stroke-linejoin="round" stroke-miterlimit="2" clip-rule="evenodd" viewBox="0 0 15 15"><path fill="#f4f4f4" d="M5.191 8.933c.023.546-.684 1.257-1.566 1.497-.621 1.101-1.251.442-1.251.442s-.514-.002-.52-.694C.721 10.574.351 9.81.351 9.81c-.225-.13-.47-.531-.229-.99a2.1 2.1 0 0 1 .534-.632c-.017-.634.224-1.572.516-2.128.428-.817 1.154-.857 1.693-.007V4.416a.5.5 0 0 1 .5-.5h.586a.5.5 0 0 1 .5.5v.818q.137-.023.284-.024c.509-.001 1.068.152 1.425.55q.086-.098.195-.185c.266-.209.642-.366 1.185-.366.418 0 .737.093.984.233V4.415a.5.5 0 0 1 .5-.5h.586a.5.5 0 0 1 .5.5v.818q.137-.023.285-.024c.495 0 1.025.144 1.376.512l.026.028q.082-.092.186-.174c.266-.209.642-.366 1.185-.366.545 0 .922.158 1.19.374.6.483.644 1.327.644 1.69a.5.5 0 0 1-.5.5h-.195s.582.613.141.972c.833.191.665 1.472-.189 1.459-.193-.003-.823-.036-1.141-.017a1.8 1.8 0 0 1-1.148-.011c-.284.113-.603.078-.999.01-.149-.026-.333.018-.476.018-.149 0-.299-.011-.448-.011-.276 0-.808.009-1.212.009-.465 0-1.221.021-1.662-.009-.556-.214-.392-1.079-.167-1.259a1.7 1.7 0 0 1-.523-.217.5.5 0 0 1-.451.285h-.586a.5.5 0 0 1-.255-.07Zm-.74-.637q.32.066.495.197V6.879c0-.044.001-.111-.01-.183-.012-.074-.039-.168-.237-.168-.284 0-.248.321-.248.351zm5.909-.613c.251 0 .247-.221.247-.361V6.88c0-.218-.044-.351-.247-.351-.284 0-.248.321-.248.351v.442c0 .141 0 .361.248.361m-.927 1.053c-.294-.15-.489-.308-.489-.308s-.102.15-.325.296zm2.562-.099a1.6 1.6 0 0 1-.201-.185 1.5 1.5 0 0 1-.277.25l.071.03c.068-.033.228-.076.407-.096Z"/><path fill="#e4007e" d="M5.445 8.503V6.879c0-.226.001-.851-.747-.851s-.748.771-.748.851v1.624h-.586V4.417h.586v1.52s.361-.226.784-.226c.589-.001 1.297.262 1.297 1.127v1.665zm1.346-1.229v.002s0 .909.821.909c.458 0 .674-.113.674-.113s.12.238.122.238-.292.191-.816.191c-1.387 0-1.387-1.145-1.387-1.383s0-1.408 1.334-1.408 1.334 1.168 1.334 1.564zm0-.32h1.495l.002-.073c0-.226.001-.851-.747-.851s-.748.771-.748.851l-.002-.002zm4.899.164c0 .721-.206 1.383-1.293 1.383-1.374 0-1.374-1.084-1.374-1.383V4.417h.586v1.521s.362-.226.785-.226c.605 0 1.297.243 1.297 1.168v.238Zm-.585.215v-.452c0-.226.001-.851-.747-.851s-.748.771-.748.851v.452c0 .08.001.851.748.851s.747-.625.747-.851m3.394-.057-2.081.001s0 .909.821.909c.458 0 .674-.115.674-.113l.122.238c.002 0-.292.191-.816.191-1.387 0-1.387-1.146-1.387-1.383s0-1.406 1.334-1.406c1.333 0 1.333 1.168 1.333 1.564Zm-.585-.394c0-.226.002-.851-.746-.851s-.748.771-.748.851l-.002-.002v.075h1.494zm-1.749 2.354v.46h-.046v-.46zm-1.088 0v.46h-.046v-.46zm-1.011 0v.46h-.046v-.46zm-2.894.46.001-.028.247-.327.053-.066v-.002h-.281v-.037h.333v.03l-.247.327-.049.063v.002h.299v.038zm.854 0-.003-.088h-.002a.17.17 0 0 1-.165.098c-.114 0-.198-.095-.198-.232-.001-.153.094-.249.207-.249q.046-.003.087.02a.15.15 0 0 1 .063.063h.002v-.291h.046v.573c0 .035.001.075.004.108h-.041Zm-.008-.186.001-.092a.15.15 0 0 0-.15-.154c-.101 0-.165.087-.165.206 0 .103.052.198.161.198a.15.15 0 0 0 .095-.034.16.16 0 0 0 .053-.086zm.453-.241c-.063 0-.108.054-.121.128a.2.2 0 0 0-.004.044v.254H8.3v-.322q0-.069-.004-.137h.042l.002.093h.003a.14.14 0 0 1 .13-.104l.019.002v.044zm.578.191c0 .172-.117.245-.22.245-.119 0-.211-.093-.211-.237 0-.157.103-.245.218-.245.128 0 .213.096.213.236Zm-.046.003c0-.084-.051-.2-.169-.2s-.17.105-.17.203c0 .115.072.201.168.201s.172-.086.172-.204Zm.684.232h-.038l-.087-.256a2 2 0 0 1-.048-.157h-.002a2 2 0 0 1-.05.158l-.091.255h-.04l-.142-.46h.047l.078.262q.023.08.039.144h.002q.018-.064.046-.144l.092-.262h.042l.088.26q.029.083.045.146h.002q.015-.063.042-.145l.082-.261h.046zm.391-.592q0 .008-.002.015l-.008.013a.03.03 0 0 1-.027.012l-.015-.003-.012-.009-.008-.013-.002-.015q0-.015.011-.028a.04.04 0 0 1 .027-.013l.015.004.012.009.008.013.002.015Zm.571.358-.339.001c0 .147.08.205.175.205a.3.3 0 0 0 .128-.026l.011.035a.3.3 0 0 1-.145.03c-.132 0-.215-.096-.215-.231 0-.153.088-.249.207-.249.151 0 .18.142.18.208q0 .014-.002.027m-.045-.036c0-.064-.028-.161-.138-.161-.102 0-.146.09-.154.161zm.486-.32q0 .008-.002.015l-.008.013-.012.009a.04.04 0 0 1-.03 0l-.012-.009-.008-.013-.002-.015q0-.015.011-.028a.04.04 0 0 1 .027-.013q.008 0 .015.004l.012.009.008.013.002.015Zm.82.355c0 .164-.098.248-.209.248a.2.2 0 0 1-.09-.021.2.2 0 0 1-.066-.064h-.002v.265h-.046v-.503c0-.057-.001-.103-.004-.147h.044l.003.087h.002a.2.2 0 0 1 .071-.073.2.2 0 0 1 .099-.024c.119 0 .198.098.198.233Zm-.047.002c0-.103-.057-.196-.161-.196a.16.16 0 0 0-.097.035.16.16 0 0 0-.055.087l-.007.039v.09q0 .019.004.036a.15.15 0 0 0 .056.084.15.15 0 0 0 .096.032c.104 0 .165-.085.165-.208Zm.317-.356q.001.008-.002.015l-.008.013a.03.03 0 0 1-.027.012l-.015-.003-.012-.009-.008-.013q-.003-.008-.002-.015 0-.015.011-.028a.04.04 0 0 1 .027-.013l.014.004.012.009.008.013zm.579.357-.34.001c0 .147.08.205.175.205a.3.3 0 0 0 .128-.026l.012.035-.045.017c-.041.016-.096.066-.096.111q0 .01.002.017a.04.04 0 0 0 .024.025l.017.003a.1.1 0 0 0 .047-.01l.008.027a.1.1 0 0 1-.063.017q-.015.002-.03-.003a.1.1 0 0 1-.026-.015.1.1 0 0 1-.017-.024.1.1 0 0 1-.005-.029c0-.046.04-.089.074-.11l-.035.002c-.132 0-.215-.096-.215-.231 0-.153.088-.249.207-.249.151 0 .178.142.178.208v.027Zm-.046-.036c.002-.064-.025-.161-.137-.161-.101 0-.145.09-.153.161h.291Zm.595.271-.055-.001-.188-.242-.047.05v.192h-.046v-.681h.046v.442h.002l.044-.051.163-.17h.055l-.186.192zm.502 0-.001-.274c0-.083-.033-.159-.128-.159a.15.15 0 0 0-.138.106l-.006.041v.286h-.046v-.35c0-.042-.001-.074-.004-.11h.043l.003.082h.002a.2.2 0 0 1 .066-.07.17.17 0 0 1 .093-.024c.044 0 .161.022.161.195v.277zm.682-.236c0 .172-.117.245-.22.245-.119 0-.211-.093-.211-.237 0-.157.103-.245.218-.245.127 0 .213.096.213.236Zm-.045.003c0-.084-.051-.2-.169-.2s-.171.105-.171.203c0 .115.072.201.168.201s.172-.086.172-.204"/><path fill="#fff" fill-rule="nonzero" d="M.843 9.735c.052.15.462.147 1.064-.113.685-.294.936-.573.861-.737-.087-.189-.913-.44-1.299-.248-.459.228-.68.942-.626 1.096"/><path fill="#fff" fill-rule="nonzero" d="M.501 9.256c.019.165.449.304 1.14.212.787-.104 1.116-.313 1.077-.498-.046-.213-.849-.694-1.298-.609-.534.101-.938.726-.919.895"/><path fill="#fff" fill-rule="nonzero" d="M2.583 9.205c.251-.04.519-.633.302-1.672-.247-1.183-.673-1.685-.909-1.643-.384.069-.904 1.63-.812 2.411.096.82 1.161.945 1.419.904"/><path fill="#fff" fill-rule="nonzero" d="M2.413 10.376c-.098-.031-.095-.371.035-.757.148-.439.31-.603.419-.558.125.052.331.573.231.82-.119.295-.585.526-.686.494"/><path fill="#fff" fill-rule="nonzero" d="M2.813 10.583c-.1.004-.215-.32-.224-.759-.01-.5.107-.726.221-.719.132.007.494.461.484.749-.011.342-.378.724-.482.729Z"/><path fill="#fff" fill-rule="nonzero" d="M2.654 9.269c-.019-.161.255-.445.974-.517.77-.077 1.118.099 1.133.252.025.249-.807.857-1.303.952-.521.099-.785-.52-.805-.687Z"/><path fill="url(#a)" fill-rule="nonzero" d="M2.876 9.082a.1.1 0 0 0-.031-.006c-.096 0-.228.165-.354.539-.123.367-.092.606-.005.633s.471-.117.583-.396c.094-.236-.082-.724-.193-.771Z"/><path fill="url(#b)" fill-rule="nonzero" d="M2.747 8.87c-.064-.131-.532-.299-.915-.299a.8.8 0 0 0-.327.059c-.435.203-.632.825-.579.967.051.137.436.166 1.007-.064.652-.261.888-.513.814-.664Z"/><path fill="url(#c)" fill-rule="nonzero" d="M1.614 8.367a1 1 0 0 0-.108.01c-.504.096-.87.688-.853.848.017.156.408.286 1.06.198.743-.099 1.053-.298 1.017-.473-.039-.184-.683-.582-1.115-.582Z"/><path fill="url(#d)" fill-rule="nonzero" d="M2.529 9.192c.232-.04.486-.601.295-1.577-.208-1.061-.573-1.487-.796-1.487l-.031.003c-.356.069-.85 1.489-.773 2.223.081.772 1.065.879 1.305.838"/><path fill="url(#e)" fill-rule="nonzero" d="M2.836 10.419c.101-.004.431-.289.442-.61.009-.27-.343-.697-.472-.704h-.005c-.109 0-.2.212-.19.676.008.413.127.644.224.638Z"/><path fill="url(#f)" fill-rule="nonzero" d="M3.898 8.787q-.144 0-.319.017c-.618.06-.908.314-.89.46.018.151.26.724.736.634.453-.085 1.212-.638 1.191-.865-.012-.116-.235-.246-.718-.246"/><defs><linearGradient id="a" x1="0" x2="1" y1="0" y2="0" gradientTransform="rotate(108.953 -2.058 5.817)scale(.6554)" gradientUnits="userSpaceOnUse"><stop offset="0" stop-color="#fc0"/><stop offset=".55" stop-color="#f49205"/><stop offset="1" stop-color="#ec6608"/></linearGradient><linearGradient id="b" x1="0" x2="1" y1="0" y2="0" gradientTransform="rotate(132.874 -1.01 4.97)scale(.61417)" gradientUnits="userSpaceOnUse"><stop offset="0" stop-color="#fc0"/><stop offset=".55" stop-color="#f49205"/><stop offset="1" stop-color="#ec6608"/></linearGradient><linearGradient id="c" x1="0" x2="1" y1="0" y2="0" gradientTransform="rotate(.687 -741.232 85.261)scale(.83857)" gradientUnits="userSpaceOnUse"><stop offset="0" stop-color="#e50069"/><stop offset=".42" stop-color="#e62242"/><stop offset="1" stop-color="#e84e0f"/></linearGradient><linearGradient id="d" x1="0" x2="1" y1="0" y2="0" gradientTransform="rotate(69.958 -3.831 4.704)scale(2.31864)" gradientUnits="userSpaceOnUse"><stop offset="0" stop-color="#e6007e"/><stop offset=".35" stop-color="#e4017d"/><stop offset=".52" stop-color="#dc047c"/><stop offset=".66" stop-color="#cf0a79"/><stop offset=".77" stop-color="#bc1274"/><stop offset=".87" stop-color="#a41c6e"/><stop offset=".96" stop-color="#872967"/><stop offset="1" stop-color="#792f64"/></linearGradient><linearGradient id="e" x1="0" x2="1" y1="0" y2="0" gradientTransform="rotate(253.37 5.348 4.074)scale(.94417)" gradientUnits="userSpaceOnUse"><stop offset="0" stop-color="#e50069"/><stop offset=".42" stop-color="#e62242"/><stop offset="1" stop-color="#e84e0f"/></linearGradient><linearGradient id="f" x1="0" x2="1" y1="0" y2="0" gradientTransform="rotate(181.192 2.438 4.647)scale(1.81276)" gradientUnits="userSpaceOnUse"><stop offset="0" stop-color="#e6007e"/><stop offset=".35" stop-color="#e4017d"/><stop offset=".52" stop-color="#dc047c"/><stop offset=".66" stop-color="#cf0a79"/><stop offset=".77" stop-color="#bc1274"/><stop offset=".87" stop-color="#a41c6e"/><stop offset=".96" stop-color="#872967"/><stop offset="1" stop-color="#792f64"/></linearGradient></defs></svg>