<svg xmlns="http://www.w3.org/2000/svg" xml:space="preserve" fill-rule="evenodd" stroke-linejoin="round" stroke-miterlimit="2" clip-rule="evenodd" viewBox="0 0 15 15"><path fill="#f4f4f4" d="M6.75 5.798c.707.115.828.901.348 1.325-.075.066-.19.077-.451.465q-.03.045-.062.085c.831.207.836.985.553 1.455a.2.2 0 0 1 .097.075c.639-2.15 1.467-4.675 1.884-5.755.123-.318.336-.481.594-.588.127-.053.273-.08.404-.145.478-.235.825-.247 1.017-.184.38.124.463.297.47.658.007.349-.043.813-.08 1.148-.061.552-.135 1.071-.207 1.579.365-.808.739-1.591 1.157-2.447.164-.337.316-.505.447-.606a1 1 0 0 1 .314-.162c.06-.019.121-.023.186-.051.415-.185.696-.247.872-.246.37.002.582.16.676.494.043.153.034.386-.033.665-.441 1.833-1.569 7.604-1.741 8.492-.119.613-.807.67-1.181.372-.045-.036.002.041-.118-.126-.12-.166-.252-.248-.348-.32-.344-.256-.479-.166-.392-.795a46 46 0 0 1 .287-1.746 62 62 0 0 0-.696 1.798c-.248.678-.871.667-1.213.308-.049-.052-.035-.015-.125-.175s-.238-.266-.347-.398a1.2 1.2 0 0 1-.284-.603 5 5 0 0 1-.048-.661c-.212.703-.4 1.338-.531 1.788-.304 1.049-1.537.789-1.558-.022a1 1 0 0 1 .019-.229c-.149.043-.308-.013-.362-.083a1.07 1.07 0 0 1-.742.042 1.02 1.02 0 0 1-.62-.556q-.25.717-.5 1.468c-.206.623-.872.718-1.23.217-.105-.147-.197-.206-.281-.275a1.6 1.6 0 0 1-.313-.335c-.059-.087-.215-.196-.113-.609.109-.445.362-1.265.74-2.347l-.572.126c-.33.876-.651 1.754-.958 2.622-.401 1.135-1.909.771-1.506-.41.256-.751.534-1.526.816-2.288-.148-.115-.268-.259-.401-.404C.52 8.37.28 8.253.186 8.121c-.242-.336-.4-.932.487-1.188q.617-.178 1.185-.321a215 215 0 0 1 1.363-3.407c.443-1.086 2.018-.822 1.514.422-.338.835-.683 1.696-1.026 2.569q.276-.054.526-.099c.359-.912.766-1.902 1.216-2.935 0 0 .132-.406.595-.486.198-.034.481-.171.688-.234 1.132-.343 1.167.392.891 1.112-.23.608-.531 1.367-.876 2.247Z"/><path fill="#d40000" d="M10.339 3.162c.509-.25.761-.217.766.036.007.329-.042.766-.077 1.083-.189 1.72-.504 3.125-.528 4.891.831-2.15 1.527-3.645 2.424-5.485.285-.587.467-.477.701-.581.911-.406.945-.157.826.339-.442 1.837-1.573 7.623-1.746 8.514-.05.258-.33.148-.402.048-.324-.449-.69-.456-.65-.754.203-1.485.936-5.212 1.127-6.09-.973 1.995-1.982 4.488-2.501 5.902-.11.3-.31.278-.434.059-.175-.309-.515-.466-.572-.831-.177-1.159.203-3.369.257-4.767-.53 1.527-1.419 4.492-1.809 5.832-.16.554-.696.464-.554-.076.592-2.248 1.868-6.225 2.419-7.654.13-.337.47-.325.753-.464Zm-3.23-.276c.162.038.149.228.05.488-.29.767-.694 1.774-1.155 2.961.29-.033.448-.044.448-.044.416-.051.494.157.376.378-.094.177-.206.059-.596.639-.219.327-.577.414-.776.457a109 109 0 0 0-1.493 4.193.197.197 0 0 1-.348.082c-.234-.327-.407-.338-.589-.603-.023-.043-.064-.101-.04-.206.134-.546.489-1.668 1.028-3.146-.679.147-1.415.306-1.719.376-.365.963-.72 1.929-1.057 2.884-.209.592-.753.478-.562-.082.304-.891.64-1.817.975-2.715-.376-.04-.504-.306-.714-.528-.081-.086-.259-.074-.345-.194-.156-.216-.141-.312.219-.416q.746-.215 1.418-.378a214 214 0 0 1 1.453-3.641c.226-.554.809-.502.588.045-.45 1.111-.911 2.266-1.367 3.437a33 33 0 0 1 1.694-.336c.381-.978.82-2.052 1.311-3.179.033-.073.125-.176.223-.193.306-.053.805-.322.976-.28ZM5.944 9.158l-.069-.234c-.05-.182-.096-.394.087-.611.341-.406 1.135-.046.733.579-.097.151-.21.293-.328.437l.123.385.109-.101c.25-.217.489-.002.242.365a4 4 0 0 1-.179.247q.047.135.081.222c.128.327-.208.41-.315.138l-.03-.076c-.204.181-.44.294-.693.216-.415-.129-.52-.713-.132-1.163a9 9 0 0 1 .369-.405Zm.286-.287.108-.117c.253-.285-.246-.404-.131.032zm-.02 1.107-.107-.321q-.053.067-.104.138c-.203.28-.084.38.069.287q.072-.044.142-.104"/></svg>