<svg xmlns="http://www.w3.org/2000/svg" xml:space="preserve" fill-rule="evenodd" stroke-linejoin="round" stroke-miterlimit="2" clip-rule="evenodd" viewBox="0 0 15 15"><path fill="#f4f4f4" d="M5.089 9.257q.03.08.03.168a.5.5 0 0 1-.434.498q-.166.022-.334.023a2.5 2.5 0 0 1-.916-.167c-.06.161-.156.376-.302.587-.288.418-.661.667-.661.667a.5.5 0 0 1-.767-.525s.096-.435.384-.854c.142-.206.304-.371.432-.485l-.065-.071a2.7 2.7 0 0 1-.553.384c-.454.238-.9.284-.9.284a.5.5 0 0 1-.431-.826s.29-.335.744-.573c.288-.151.453-.19.622-.232l-.022-.087a2.8 2.8 0 0 1-.669.084c-.513 0-.929-.163-.929-.163a.5.5 0 0 1 0-.933s.415-.163.929-.163c.262 0 .499.042.668.084l.023-.093a2.7 2.7 0 0 1-.621-.232 2.8 2.8 0 0 1-.744-.572.5.5 0 0 1 .431-.826s.445.046.898.283c.235.121.425.269.555.384l.065-.071a2.7 2.7 0 0 1-.423-.472l-.01-.014a2.8 2.8 0 0 1-.384-.852.5.5 0 0 1 .767-.527s.373.249.661.667a2.7 2.7 0 0 1 .302.588 2.5 2.5 0 0 1 1.252-.143.5.5 0 0 1 .414.626h.161c.284 0 .5.213.5.5v.151c.211-.037.569-.09.903-.09.226 0 .422.054.588.148v-.215a.5.5 0 0 1 .5-.5h.927c.453 0 .795.139 1.038.374l.004.004q.148.145.242.334.311-.184.721-.185c.391 0 .71.126.966.365q.039-.037.084-.073c.227-.181.525-.285.902-.285q.307 0 .571.097v-.123a.5.5 0 0 1 .5-.5h.419a.5.5 0 0 1 .5.5v.069a.5.5 0 0 1 .373.484v.343a.5.5 0 0 1-.373.484v.351a.5.5 0 0 1 .365.481v.352a.5.5 0 0 1-.409.492 1.4 1.4 0 0 1-.31.034c-.387 0-.645-.117-.803-.277-.22.153-.495.239-.832.239-.426 0-.771-.109-1.044-.312q-.37.317-.909.319c-.425 0-.772-.152-1.037-.443a1.4 1.4 0 0 1-.301-.508 1.5 1.5 0 0 1-.637.127h-.024v.307a.5.5 0 0 1-.5.5h-.433a.5.5 0 0 1-.202-.042.5.5 0 0 1-.222.052h-.425a.5.5 0 0 1-.399-.198.5.5 0 0 1-.399.198h-.425a.5.5 0 0 1-.214-.048.5.5 0 0 1-.206.044h-.174Z"/><path fill="#ffcc05" d="M2.504 5.063c.23.335.528.536.528.536s-.077-.345-.309-.682a2.3 2.3 0 0 0-.528-.536s.079.345.309.682M1.249 7.632c.414 0 .749-.129.749-.129s-.335-.129-.749-.129S.5 7.503.5 7.503s.335.129.749.129m1.024-1.211s-.358-.039-.723-.23a2.3 2.3 0 0 1-.599-.459s.358.039.723.23c.367.189.599.459.599.459m1.191 1.537s-.133.052-.345.054c.227.71.723 1.318 1.5 1.416a2 2 0 0 1-.27.019c-1.097.004-1.988-.863-1.994-1.938s.88-1.949 1.975-1.953a2 2 0 0 1 .288.019c-.886.11-1.47.818-1.588 1.693a.674.674 0 0 0 .433.691Zm-.433 1.443s-.298.2-.528.536c-.23.335-.309.682-.309.682s.298-.2.528-.536c.232-.337.309-.682.309-.682M1.55 8.809c.365-.191.723-.23.723-.23s-.232.268-.599.459c-.365.191-.723.23-.723.23s.234-.268.599-.459"/><path fill="#090909" d="M9.368 7.707q.242-.237.242-.629 0-.41-.238-.644-.241-.233-.691-.234h-.927v2.552h.433v-.807h.524q.414 0 .657-.238m-.65-1.093q.452 0 .453.464a.45.45 0 0 1-.122.337q-.122.12-.339.12h-.526v-.921zm-3.455-.408H4.83v2.552h.433zm9.01 2.593a1 1 0 0 0 .217-.026h.002v-.352a1 1 0 0 1-.109.008q-.164 0-.213-.069-.043-.053-.043-.221V7.105h.373v-.343h-.373V6.21h-.419v1.955q0 .35.092.476.115.16.474.159Zm-7.368-.037h.425V7.466q-.001-.326-.182-.506a.65.65 0 0 0-.483-.193c-.466 0-.983.114-.983.114v1.88h.425V7.183c.148-.032.352-.062.479-.053.206.017.318.155.318.412v1.219Zm4.707-1.015q0 .46-.258.741a.87.87 0 0 1-.668.281.86.86 0 0 1-.668-.281q-.258-.28-.258-.741t.258-.74a.87.87 0 0 1 .668-.279q.415 0 .672.279.254.28.255.74Zm-.438.002q0-.29-.133-.457a.43.43 0 0 0-.356-.169.43.43 0 0 0-.356.17q-.134.171-.133.455 0 .29.133.457.134.168.356.169a.43.43 0 0 0 .356-.169q.133-.168.133-.457Zm2.058.828a.59.59 0 0 0 .225-.476q0-.45-.558-.552a22 22 0 0 0-.477-.081q-.17-.045-.17-.167 0-.21.372-.21.293 0 .521.202l.253-.266a1.07 1.07 0 0 0-.76-.292q-.368 0-.59.176a.54.54 0 0 0-.221.44q0 .258.182.388.156.106.521.159.303.048.373.073.12.045.12.167 0 .104-.105.176a.5.5 0 0 1-.283.071.78.78 0 0 1-.562-.236l-.322.27q.315.342.889.343.368 0 .593-.185Z"/></svg>