<svg xmlns="http://www.w3.org/2000/svg" xml:space="preserve" fill-rule="evenodd" stroke-linejoin="round" stroke-miterlimit="2" clip-rule="evenodd" viewBox="0 0 15 15"><path fill="#f4f4f4" d="M6.215 12.171a.6.6 0 0 1-.238-.054.7.7 0 0 1-.236-.226c-.183.149-.294.269-.578.312-.255.039-.525-.211-.525-.211s-.122.088-.168.117a.62.62 0 0 1-.544.056 1.9 1.9 0 0 1-.507-.281s-.067.106-.135.16c-.158.124-.359.126-.359.126s-.829.002-1.019 0c-.091-.001-.186-.036-.186-.036s-.129.034-.194.036c-.195.006-.795.002-.978 0a.57.57 0 0 1-.442-.222.57.57 0 0 1-.087-.469c.09-.371.428-1.634.53-1.996a.6.6 0 0 1 .203-.308c.162-.127.365-.126.37-.126.078 0 .363-.002.459 0 .225.005.441.221.441.221s.21-.213.448-.221c.204-.006.829-.002 1.018 0a.6.6 0 0 1 .204.042s.136-.037.206-.042c.112-.007.466 0 .467 0 .047.005.235.054.235.054s.132-.049.23-.055c.113-.006.393-.001.481 0 .016 0 .047.005.047.005l.099-.066a1.12 1.12 0 0 1-.662-.383l-.002-.001c-.494-.189-.897-.472-1.175-.835-.437-.571-.519-1.254-.281-1.946.289-.842 1.092-1.718 2.299-2.334l.02-.075c.137-.52.64-.915 1.181-.915H8.88c.313 0 .594.129.796.333.785.156 1.426.509 1.814 1.017.801 1.047.393 2.546-1.039 3.663l-.154.584c-.134.512-.657.91-1.185.91H6.865l.013.026c.002.005.003.017.003.017s.331-.002.367 0c.243.013.504.332.504.332s.247-.332.534-.332h.483c.146 0 .364.137.364.137s.189-.132.369-.137c.232-.006.972-.002 1.19 0a.66.66 0 0 1 .365.141s.197-.132.405-.141c.111-.005.396 0 .455 0 .286 0 .5.329.5.329s.22-.312.514-.329c.105-.006.343-.001.427 0 .152.002.332.131.332.131s.168-.119.364-.131c.098-.006.302-.002.386 0a.6.6 0 0 1 .361.125.58.58 0 0 1 .179.566c-.09.371-.428 1.634-.53 1.997a.625.625 0 0 1-.562.434 5 5 0 0 1-.36 0c-.217-.009-.376-.158-.376-.158s-.187.146-.39.159c-.1.006-.309.002-.395 0a.7.7 0 0 1-.182-.034s-.1.029-.185.034a9 9 0 0 1-.493 0c-.226-.011-.411-.198-.411-.198s-.211.187-.433.198a10 10 0 0 1-.45 0c-.113-.002-.218-.051-.218-.051s-.115.048-.227.051c-.102.003-.278 0-.47 0-.088 0-.223-.048-.223-.048s-.101.046-.222.048c-.1.002-.379.006-.493 0-.225-.011-.411-.198-.411-.198s-.211.187-.433.198a10 10 0 0 1-.45 0c-.104-.002-.191-.035-.191-.035s-.126.032-.19.035c-.11.006-.372.002-.47 0"/><path fill="#007ec5" d="M5.108 8.187c-.462-.152-.843-.393-1.093-.72-.831-1.085.081-2.707 2.035-3.622l.011-.005.078-.297a.74.74 0 0 1 .697-.542h2.043a.63.63 0 0 1 .53.293c.729.113 1.333.402 1.684.86.68.889.192 2.138-1.081 3.064l-.061.232-.137.52a.75.75 0 0 1-.702.537H5.654a.63.63 0 0 1-.546-.319Zm-2.02 3.105-.084.316a.09.09 0 0 1-.079.063H1.906c-.035 0-.055-.028-.046-.063l.53-1.996a.09.09 0 0 1 .079-.063h1.018c.035 0 .055.028.046.063l-.084.316a.09.09 0 0 1-.079.063h-.486l-.102.383h.416c.035 0 .055.028.046.063l-.082.308a.09.09 0 0 1-.079.062h-.416l-.112.423h.486c.035 0 .055.028.046.063Zm4.206-1.68-.53 1.996a.09.09 0 0 1-.079.063h-.47c-.035 0-.055-.028-.046-.063l.53-1.996a.09.09 0 0 1 .079-.063h.47c.035 0 .055.028.046.063m1.523-.019.117 1.992-.002.024a.09.09 0 0 1-.079.063H8.36c-.028 0-.048-.018-.048-.046l-.001-.398h-.508l-.212.393a.09.09 0 0 1-.075.051h-.45l-.018-.003c-.03-.011-.039-.046-.019-.079l1.178-1.993a.09.09 0 0 1 .073-.047h.49c.026 0 .046.017.048.043Zm-.8 1.239h.295l.001-.547-.297.547Zm2.72-1.22-.084.316a.09.09 0 0 1-.079.063h-.297l-.429 1.618a.09.09 0 0 1-.079.063h-.47c-.035 0-.055-.028-.046-.063l.429-1.618h-.297c-.034 0-.055-.028-.046-.063l.084-.316a.09.09 0 0 1 .079-.063h1.19c.035 0 .055.028.046.063Zm1.228-.019.117 1.992c.006.04-.036.086-.081.086h-.493c-.028 0-.048-.018-.048-.046l-.001-.398h-.508l-.212.393a.09.09 0 0 1-.075.051h-.45l-.018-.003c-.03-.011-.039-.046-.019-.079l1.178-1.993a.09.09 0 0 1 .073-.047h.49c.026 0 .046.017.048.043Zm-.8 1.239h.295l.001-.547-.297.547Zm3.332-1.22-.53 1.996a.09.09 0 0 1-.079.063h-.36a.05.05 0 0 1-.046-.031l-.359-1.096-.282 1.064a.09.09 0 0 1-.079.063h-.395c-.035 0-.055-.028-.046-.063l.53-1.996a.09.09 0 0 1 .079-.063h.412q.034 0 .046.031l.328 1.006.259-.974a.09.09 0 0 1 .079-.063h.398c.035 0 .055.028.046.063Zm-12.809 1.68-.084.316a.09.09 0 0 1-.079.063H.547c-.035 0-.055-.028-.046-.063l.53-1.996a.09.09 0 0 1 .079-.063h.47c.035 0 .055.028.046.063l-.429 1.617h.445c.035 0 .055.028.046.063m1.836-.598c.094-.366.192-.723.289-1.089.008-.029.049-.056.076-.056h.475c.029 0 .051.028.043.057l-.267 1.009c-.072.274-.021.465.204.573l.421-1.59a.07.07 0 0 1 .063-.049h.488c.031 0 .05.03.044.056l-.245.924a1 1 0 0 0-.041.385.47.47 0 0 0 .164.293c.247-.304.35-.737.401-1.065.034-.216.046-.441.034-.641-.003-.055.008-.081.059-.103l.559-.247c.065-.032.11.016.112.045a3 3 0 0 1-.201 1.226 2.8 2.8 0 0 1-.381.662c-.201.256-.417.478-.709.616-.017.007-.033.014-.052-.004a19 19 0 0 1-.387-.339l-.492.343c-.01.007-.031.013-.078-.003a1.4 1.4 0 0 1-.409-.233.57.57 0 0 1-.207-.297c-.038-.147-.003-.318.038-.475Z"/><path fill="#fff" fill-rule="nonzero" d="M9.482 7.882a.41.41 0 0 1-.37.281H5.654a.29.29 0 0 1-.279-.37L6.471 3.63a.39.39 0 0 1 .366-.286H8.88c.194 0 .331.181.279.37l-.864 3.283h1.036a.29.29 0 0 1 .288.365z"/><path fill="#ffed00" d="m9.322 7.841.137-.521c.023-.086-.034-.159-.126-.157H8.08l.918-3.491c.025-.089-.03-.162-.119-.162H6.836a.23.23 0 0 0-.206.162L5.534 7.835c-.023.089.03.162.119.162h3.458c.092 0 .175-.074.21-.157"/></svg>