<svg xmlns="http://www.w3.org/2000/svg" xml:space="preserve" fill-rule="evenodd" stroke-linejoin="round" stroke-miterlimit="2" clip-rule="evenodd" viewBox="0 0 15 15"><path fill="#f4f4f4" d="M15 .5v14a.5.5 0 0 1-.5.5H.5a.5.5 0 0 1-.5-.5V.5A.5.5 0 0 1 .5 0h14a.5.5 0 0 1 .5.5"/><path fill="#fff" fill-rule="nonzero" d="M.5.5h14v14H.5z"/><path fill="#0050aa" fill-rule="nonzero" d="M.622.622h13.757v13.757H.622z"/><path fill="#e60a14" d="M7.5.987a6.515 6.515 0 1 1-.003 13.027A6.515 6.515 0 0 1 7.5.987"/><path fill="#fff000" fill-rule="nonzero" d="M7.5 1.398a6.102 6.102 0 1 0 6.102 6.105 6.104 6.104 0 0 0-6.101-6.104Z"/><path fill="#0050aa" d="M2.092 6.368h1.919v.414h-.32v1.339l1.111-.618v1.133h-2.71V8.22h.321V6.782h-.321zm8.09 0h1.921v.414h-.321v1.339l1.113-.618v1.133h-2.712V8.22h.321V6.782h-.321zm-1.069 0c1.369 0 1.352 2.268-.004 2.268H7.283V8.22h.324V6.782h-.32v-.414zm-.257 1.558c.386 0 .386-.852-.015-.852h-.077v.852h.091Z"/><path fill="#e60a14" d="m7.121 7.672.482-.485v.416L5.869 9.339l-.208-.209.32-.319-.867-.869-.313.314v-.418l1.242-1.244zM5.885 5.079a.683.683 0 1 1-.683.683V5.76c0-.376.305-.681.681-.681z"/></svg>