<svg xmlns="http://www.w3.org/2000/svg" xml:space="preserve" fill-rule="evenodd" stroke-linejoin="round" stroke-miterlimit="2" clip-rule="evenodd" viewBox="0 0 15 15"><path fill="#f4f4f4" d="M2.486 14s-1.484 0-1.484-1.484V2.485s0-1.484 1.484-1.484h10.027s1.484 0 1.484 1.484v10.031s0 1.484-1.484 1.484z"/><path fill="#db0007" fill-rule="nonzero" d="M2.486 13.567s-1.051 0-1.051-1.051V2.485s0-1.051 1.051-1.051h10.027s1.051 0 1.051 1.051v10.031s0 1.051-1.051 1.051z"/><path fill="#ffbc0d" fill-rule="nonzero" d="M9.262 3.927c-.712 0-1.346.948-1.761 2.431-.415-1.483-1.05-2.431-1.761-2.431-1.251 0-2.265 3.156-2.265 7.048h1.007c0-3.614.563-6.545 1.258-6.545s1.258 2.705 1.258 6.041h1.006c0-3.336.563-6.041 1.258-6.041s1.258 2.93 1.258 6.545h1.006c0-3.892-1.014-7.048-2.264-7.048"/></svg>