<svg xmlns="http://www.w3.org/2000/svg" xml:space="preserve" fill-rule="evenodd" stroke-linejoin="round" stroke-miterlimit="2" clip-rule="evenodd" viewBox="0 0 15 15"><path fill="#a7a7a7" d="M4.55 6.17s.1-.17.4-.17c.4 0 .58.4.58.4s.18.1.24.1q.23 0 .43.07l.13.06.57-.13c.15-.01.33.01.46.06l.02-.01c.16-.04.5-.05.68.03l.08-.03c.2-.05.66-.03.89-.03.18 0 .38-.03.56.02q.12.04.28.14L10 6.6q.23-.09.47-.1c.15 0 .38.03.55.04h.44l.12-.12c.2-.13.83-.36 1.13.2 0 0 .28-.26.45-.32.29-.11.3-.1.46-.12.25-.04.55.06.76.19.18.1.34.3.44.46q.14.24.17.5c.02.17 0 .42-.05.57q-.08.27-.28.5c-.47.5-1.1.56-1.76.16l-.04-.04c-.27.13-.5.22-1.14.01l-.01.02-.15.05c-.13.03-.37.02-.51.01l-.15-.03-.2.06q-.24.01-.47-.02c-.09-.02-.29-.1-.33-.12q-.16.01-.34.08l-.04.12c-.21.4-1.1.31-1.28-.02L8.2 8.6l-.15-.05s-.34.04-.57.05l-.33.03q-.26 0-.49-.02l-.17-.07-.12.05c-.1.02-.27 0-.4.01l-.39.03c-.14 0-.35-.04-.49-.05l-.3.02h-.26c-.17 0-.54.03-.74.01-.1 0-.29-.07-.38-.1l-.23.08c-.16.03-.38.05-.57.02l-.25-.07-.11.05c-.1.02-.3.01-.45.01H.5a.5.5 0 0 1-.5-.5V7.03c0-.34.22-.5.5-.5l.42.01.05.02q.16-.05.26-.05l.23.05.03.02.06-.02.25-.05.13.01.15.04.17.09.1-.07c.14-.07.33-.08.46-.08q.12 0 .22.02l.16.05.22.13c.12-.05.31-.15.4-.17s.1-.22.4-.36c.1-.05.34 0 .34 0"/><path fill="#fff200" d="m4 7.02.12.01.07.02V6.7q0-.02.02-.02h.32q.02 0 .02.02v1.4q0 .02-.02.02h-.3q-.02 0-.02-.02v-.04l-.22.07h-.1a.4.4 0 0 1-.35-.15.6.6 0 0 1-.1-.36q0-.15.04-.26l.1-.17q.06-.08.16-.12l.21-.04zm0 .82a.4.4 0 0 0 .19-.05v-.47l-.13-.03H4a.2.2 0 0 0-.14.08.3.3 0 0 0-.06.21q0 .15.05.2.04.06.15.06M2.8 7h.04q.25 0 .37.15.13.14.13.4v.1l-.02.02h-.7q.03.12.08.15l.1.05h.14q.1 0 .27-.06l.03.02v.23l-.02.02q-.2.06-.36.06h-.05A.6.6 0 0 1 2.43 8a.6.6 0 0 1-.17-.43q0-.27.16-.42Q2.57 7 2.8 7m-.18.44H3a.3.3 0 0 0-.04-.15q-.05-.05-.13-.05H2.8a.2.2 0 0 0-.13.05.3.3 0 0 0-.06.15m3.05-.02.25-.03q0-.07-.05-.1l-.11-.04H5.7a1 1 0 0 0-.32.06l-.02-.01v-.22q0-.02.04-.03L5.75 7q.12 0 .2.02.13.02.2.07.12.11.13.33v.67q0 .02-.02.02h-.3q-.02 0-.02-.02v-.04l-.08.04-.1.03-.17.02a.4.4 0 0 1-.26-.1.3.3 0 0 1-.1-.23V7.8q0-.1.06-.2.06-.08.15-.12zm.09.46.16-.08v-.2l-.18.03q-.09.04-.12.07l-.03.08.01.05c.04.08.16.05.16.05m-.66-.85.02.02V8.1q0 .02-.02.02h-.32q-.02 0-.02-.02V7.05l.02-.02zm-3.03.09q.09.1.09.3v.67q0 .02-.02.02H1.8v-.66q0-.05-.05-.1-.03-.04-.1-.03l-.14.05v.73q0 .02-.02.02h-.32q-.02 0-.02-.02v-.65c0-.02-.01-.08-.05-.1Q1.07 7.3 1 7.3l-.14.05v.73l-.01.02H.5V7.05l.02-.02h.3q.03 0 .02.02v.06a.6.6 0 0 1 .47-.08q.09.03.14.1l.13-.07.23-.06h.06a.3.3 0 0 1 .2.1Zm12.43.38c0 .45-.36.82-.8.82a.8.8 0 0 1-.8-.82.8.8 0 0 1 .8-.83c.44 0 .8.37.8.83"/><path d="M9.26 7.02h.11q.22 0 .34.16.1.14.11.36 0 .15-.04.25a.5.5 0 0 1-.27.3l-.2.04h-.05q-.08 0-.12-.02l-.07-.01v.36l-.02.02h-.33l-.01-.02v-1.4l.01-.02h.31l.02.01v.04zm0 .83q.09 0 .14-.07a.4.4 0 0 0 .06-.22q0-.13-.05-.19-.04-.07-.15-.07l-.1.02-.09.03v.48a.4.4 0 0 0 .2.02m2.47-.81v.31h-.01l-.13.01-.1.04h-.03v.7l-.01.01h-.33l-.02-.02V7.05l.02-.02h.3q.03 0 .03.02v.12q.07-.07.15-.1zm-3.1 1.05-.01.02h-.38l-.2-.33-.19.32-.02.01H7.5l-.02-.02.38-.54-.37-.49.01-.02h.38l.2.29.18-.29h.36q.02 0 .01.02l-.35.49zm3.8-.23q.02 0 .03.02v.22l-.02.01-.21.02q-.2 0-.3-.08t-.1-.29v-.9l.01-.02.33-.1.02.01v.3h.25v.25l-.02.02h-.23v.43l.02.07.03.03.1.02zM6.96 7h.03q.25 0 .37.15.13.14.13.4v.1l-.02.02h-.7q.03.12.08.15.04.04.11.05h.13q.1 0 .27-.05l.03.01v.23l-.02.02q-.2.06-.36.06h-.05a.6.6 0 0 1-.38-.13.6.6 0 0 1-.17-.43.6.6 0 0 1 .16-.42q.15-.15.4-.16Zm0 .44h.18a.3.3 0 0 0-.04-.15q-.04-.05-.13-.05h-.01a.2.2 0 0 0-.13.05.3.3 0 0 0-.06.15zM10.45 7h.02q.27 0 .38.15.13.14.13.39v.12l-.03.01h-.68q.01.12.07.15.04.04.1.05h.14q.1 0 .27-.05l.03.01v.23q0 .02-.02.02-.2.06-.36.06h-.05a.6.6 0 0 1-.38-.13.6.6 0 0 1-.17-.43q0-.27.16-.42.15-.15.39-.16m-.19.44h.37a.3.3 0 0 0-.04-.15q-.06-.05-.13-.05h-.01a.2.2 0 0 0-.13.05q-.05.06-.06.15m-5.09-.69v.03L4.96 7h-.02l-.22-.25.22-.22h.02zm8.95.73a.1.1 0 0 1-.04.08l-.47.41a.1.1 0 0 1-.1.01.1.1 0 0 1-.06-.09v-.83c0-.08.1-.13.16-.07l.47.41a.1.1 0 0 1 .04.08"/></svg>