<svg xmlns="http://www.w3.org/2000/svg" xml:space="preserve" fill-rule="evenodd" stroke-linejoin="round" stroke-miterlimit="2" clip-rule="evenodd" viewBox="0 0 15 15"><path fill="#f4f4f4" d="M.5 5.381h14a.5.5 0 0 1 .5.5v3.244a.5.5 0 0 1-.5.5H.5a.5.5 0 0 1-.5-.5V5.881a.5.5 0 0 1 .5-.5"/><path fill="#c60052" fill-rule="nonzero" d="M.5 5.881h14v3.244H.5z"/><path fill="#fff" fill-rule="nonzero" d="M10.816 8.681v-.175c-.001-.141-.097-.178-.223-.178l-.076.007-.078.117c.053-.025.099-.047.159-.047.043 0 .112.019.112.075 0 .127-.349.027-.349.244 0 .097.082.172.2.172q.03 0 .061-.006l.069-.088a.3.3 0 0 1-.084.016c-.062 0-.127-.023-.127-.096 0-.071.063-.084.119-.097a.5.5 0 0 0 .112-.036v.184c0 .093.077.117.154.121l.051-.077c-.097-.011-.099-.046-.099-.138m.436-.353c-.076 0-.124.034-.165.09v-.075h-.106v.537h.106v-.335c0-.069.018-.14.124-.14s.141.064.141.189v.286h.106V8.58c0-.055.003-.127-.029-.174-.037-.055-.112-.081-.178-.081m.799.015h-.106l-.206.237.221.3h.139l-.243-.312zM.5 8.045v.065h9.294v.766c.057.008.098.016.178.016.212 0 .346-.118.346-.301 0-.16-.112-.266-.245-.266a.2.2 0 0 0-.083.013l-.063.099a.2.2 0 0 1 .098-.026c.118 0 .175.088.175.201 0 .116-.074.198-.202.198a.4.4 0 0 1-.097-.014V8.11h1.71v.767h.106V8.11H14.5v-.065zm3.717-1.322h.208v1.088h-.209zm.544-.469.001 1.559h.215V6.254zM2.958 7.408l-.442-1.037c-.138-.319-.331-.449-.485-.486-.069-.024-.268-.008-.268-.008s.15.008.232.07c.115.075.187.251.155.49l-.14 1.037c-.019.127-.056.336-.056.336h.201s.013-.16.031-.303l.134-1.011.447 1.061a.57.57 0 0 0 .207.285l.527-1.348.134 1.134c.008.08.014.183.014.183h.261s-.023-.136-.037-.247l-.155-1.155-.011-.146h-.323v.002a.4.4 0 0 1-.035.146zm2.343-1.154.001 1.559h.215V6.254zm.722.828h.611c-.026-.166-.135-.244-.305-.244-.159 0-.277.095-.305.244m-.009.137c.005.289.206.457.473.457a.62.62 0 0 0 .388-.126h.007l-.118.223a.8.8 0 0 1-.327.059c-.402 0-.679-.253-.679-.582s.239-.568.592-.568c.322 0 .542.232.533.537zm3.583-.494-.001 1.088h.209V6.725zm-2.515-.002v1.089h.218v-.679c0-.14.035-.284.251-.284.215 0 .286.13.286.383v.58h.216v-.604c0-.111.007-.258-.059-.353-.076-.111-.227-.163-.36-.163-.154 0-.251.069-.334.182v-.151zm3.762-.003v.63c0 .182-.114.31-.27.31-.206 0-.268-.135-.268-.353V6.72h-.218l.002.627c0 .334.133.492.412.492.166 0 .256-.055.341-.185v.154h.216V6.719h-.216Zm.519.003.001 1.089h.216v-.625q-.001-.34.268-.338c.147 0 .27.125.27.374v.589h.215v-.606c0-.223.059-.358.272-.358.189 0 .265.154.265.395l-.002.568h.218l-.001-.627c0-.301-.088-.492-.424-.492-.175 0-.286.078-.379.206a.4.4 0 0 0-.369-.206c-.159 0-.251.059-.334.187v-.156h-.218Zm-3.051 0v1.089h.218v-.679c0-.14.035-.284.251-.284s.286.13.286.383v.58h.216v-.604c0-.111.007-.258-.059-.353-.076-.111-.227-.163-.36-.163-.154 0-.251.069-.334.182v-.151zm-4.147-.288a.14.14 0 1 0 .282 0 .14.14 0 0 0-.282 0m5.39 0a.14.14 0 1 0 .282 0 .14.14 0 0 0-.282 0"/></svg>