<svg xmlns="http://www.w3.org/2000/svg" xml:space="preserve" fill-rule="evenodd" stroke-linejoin="round" stroke-miterlimit="2" clip-rule="evenodd" viewBox="0 0 15 15"><path fill="#f4f4f4" d="m11.553 14.979-10.42-1.838a1.37 1.37 0 0 1-1.112-1.589l1.837-10.42A1.37 1.37 0 0 1 3.446.019l10.42 1.837a1.37 1.37 0 0 1 1.112 1.588l-1.837 10.42a1.37 1.37 0 0 1-1.588 1.112Z"/><path fill="#db3830" d="M11.64 14.487 1.22 12.649a.87.87 0 0 1-.706-1.009L2.351 1.22A.87.87 0 0 1 3.36.513L13.78 2.35c.474.084.79.535.707 1.009l-1.837 10.42a.87.87 0 0 1-1.009.707"/><path fill="#fffffe" d="M11.332 9.217c0 .141.11.21.278.21a.55.55 0 0 0 .3-.086v-.287a1 1 0 0 0-.304-.048c-.187 0-.274.096-.274.21Zm.983-.545v.777c0 .07-.018.108-.074.147-.087.057-.304.167-.654.167-.451 0-.654-.245-.654-.536 0-.265.182-.504.619-.504.138 0 .252.017.36.048v-.113c0-.155-.076-.24-.29-.24a1 1 0 0 0-.293.056.4.4 0 0 1-.11.019.183.183 0 0 1-.183-.178c0-.063.024-.142.138-.189.085-.037.254-.083.448-.083.451 0 .695.194.695.631ZM9.716 8.26v.434h.031c.067 0 .095-.009.155-.071l.462-.479a.23.23 0 0 1 .172-.084c.118 0 .213.096.213.212 0 .054-.016.105-.075.163l-.468.446.477.495a.23.23 0 0 1 .071.161.211.211 0 0 1-.371.138l-.471-.508c-.059-.064-.088-.07-.149-.07h-.046v.434a.213.213 0 0 1-.212.219.22.22 0 0 1-.211-.219v-1.27c0-.123.09-.219.211-.219.116 0 .212.096.212.219Zm-.712.043a.27.27 0 0 1-.064.171l-.738.865h.586c.121 0 .217.078.217.199 0 .115-.096.197-.217.197h-.873c-.153 0-.251-.098-.251-.231 0-.054.018-.118.063-.171l.738-.869h-.549c-.117 0-.217-.073-.217-.192 0-.117.096-.2.217-.2h.836c.154 0 .251.097.251.232Zm-1.515.208a.206.206 0 0 1-.206.205.2.2 0 0 1-.167-.095c-.062-.122-.171-.175-.306-.175-.191 0-.308.112-.327.296-.007.084-.006.229.002.312.019.19.138.305.326.305.135 0 .243-.053.305-.175a.2.2 0 0 1 .168-.094c.113 0 .206.092.206.204 0 .225-.29.47-.692.47-.397 0-.702-.279-.733-.654a3 3 0 0 1 0-.431c.023-.37.329-.637.733-.637.402 0 .692.245.692.47Zm-2.701.706c0 .141.11.209.278.209a.56.56 0 0 0 .301-.085v-.287a1 1 0 0 0-.304-.048c-.188 0-.274.096-.274.21Zm.983-.545v.777c0 .07-.019.108-.074.147-.087.057-.304.167-.654.167-.451 0-.654-.245-.654-.536 0-.265.181-.504.618-.504.138 0 .251.017.36.048v-.113c0-.155-.076-.24-.29-.24a1 1 0 0 0-.293.056.4.4 0 0 1-.11.019.183.183 0 0 1-.183-.178c0-.063.023-.142.138-.189.085-.037.254-.083.448-.083.451 0 .695.194.695.631Zm-2.66-.135v.737a.63.63 0 0 0 .305.077c.192 0 .298-.113.31-.297a2 2 0 0 0 0-.306c-.016-.179-.124-.302-.324-.302a.56.56 0 0 0-.291.092Zm1.035.135c.013.127.011.319 0 .446-.03.372-.279.637-.685.637a.9.9 0 0 1-.35-.075v.342a.216.216 0 0 1-.212.217.21.21 0 0 1-.212-.217V8.346c0-.046.012-.078.053-.105a1.2 1.2 0 0 1 .668-.2c.411 0 .705.259.739.631Zm1.842-2.685c0-.142-.085-.227-.255-.227H5.62v.455h.113c.17 0 .255-.086.255-.228m-2.326-.793c.595 0 1.078.51 1.078 1.107 0 .595-.483 1.078-1.078 1.078-.625 0-1.108-.483-1.108-1.078s.483-1.107 1.108-1.107m1.304.056h.851c.54 0 .823.256.823.709 0 .283-.17.482-.397.511l.539.851h-.823l-.34-.68v.68h-.653zm2.014 0h.739v1.503h.653v.568H6.981zm1.619 0h1.446v.51H9.25v.256h.426v.482H9.25v.255h.88v.568H8.599zm1.758 0h.624s.681 1.064.681 1.035V5.25h.653v2.071h-.624l-.681-1.035v1.035h-.653zM3.661 6.725a.435.435 0 0 0 .424-.425.42.42 0 0 0-.425-.426c-.256 0-.455.17-.455.426 0 .226.199.425.455.425Z"/></svg>