<svg xmlns="http://www.w3.org/2000/svg" xml:space="preserve" fill-rule="evenodd" stroke-linejoin="round" stroke-miterlimit="2" clip-rule="evenodd" viewBox="0 0 15 15"><path fill="#f4f4f4" d="M14.4.091c.158 0 .317.069.424.176A.62.62 0 0 1 15 .691v13.618a.62.62 0 0 1-.176.424.62.62 0 0 1-.424.176H.6a.62.62 0 0 1-.424-.176.62.62 0 0 1-.176-.424V.691C0 .533.069.374.176.267A.62.62 0 0 1 .6.091z"/><path fill="#e10226" d="M14.4.591q.042.001.071.029a.1.1 0 0 1 .029.071v13.618a.1.1 0 0 1-.1.1H.6a.1.1 0 0 1-.1-.1V.691Q.501.649.529.62A.1.1 0 0 1 .6.591z"/><path fill="#fff" d="M5.083 4.904h.17c.539 0 1.049.219 1.431.602l1.863 1.863c.468.468.468 1.24 0 1.707L5.813 6.349a.8.8 0 0 0-.568-.233h-.567a.598.598 0 0 0-.588.68c-.134-.219-.212-.425-.212-.68 0-.666.545-1.211 1.204-1.211Zm1.85 0h.999c.05.092.078.198.078.297a.58.58 0 1 1-1.076-.297Zm-.248-1.403h1.594c.595 0 1.156.234 1.573.645l1.806 1.813a1.21 1.21 0 0 1-1.686.021l-.985-.985a1 1 0 0 0-.701-.29H5.297A1.4 1.4 0 0 1 6.685 3.5Zm3.675 6.519H11l.651 1.04v-1.04h.64v2.063h-.64L11 11.045v1.039h-.641zm-1.732 0h1.424v.504h-.783v.257h.424v.482h-.424v.252h.869v.567H8.629v-2.063Zm-1.589 0h.726v1.495h.64v.567H7.039zm-1.992 0h.826q.209-.001.368.047a.7.7 0 0 1 .254.137q.102.09.153.221a.8.8 0 0 1 .051.297.56.56 0 0 1-.111.352.43.43 0 0 1-.281.163l.534.846h-.815l-.334-.68v.68h-.646zm.646.504v.456h.111a.3.3 0 0 0 .112-.016c.12-.04.152-.164.14-.253-.016-.114-.087-.186-.251-.186zm-1.908-.526c.58 0 1.051.475 1.051 1.061s-.471 1.061-1.051 1.061-1.051-.475-1.051-1.061.471-1.061 1.051-1.061m0 .646a.413.413 0 0 0-.411.415c0 .229.184.415.411.415a.413.413 0 0 0 .411-.415.413.413 0 0 0-.411-.415"/></svg>