<svg xmlns="http://www.w3.org/2000/svg" xmlns:xlink="http://www.w3.org/1999/xlink" xml:space="preserve" fill-rule="evenodd" stroke-linejoin="round" stroke-miterlimit="2" clip-rule="evenodd" viewBox="0 0 15 15"><path fill="#f4f4f4" d="M.5 4.953h14a.5.5 0 0 1 .5.5v4.094a.5.5 0 0 1-.5.5H.5a.5.5 0 0 1-.5-.5V5.453a.5.5 0 0 1 .5-.5"/><path fill="#0078e3" fill-rule="nonzero" d="M.5 5.453h14v4.094H.5z"/><clipPath id="b"><use xlink:href="#a"/></clipPath><g clip-path="url(#b)"><ellipse cx="7.525" cy="4.724" fill="url(#c)" rx="9.804" ry="4.373"/></g><clipPath id="d"><use xlink:href="#a"/></clipPath><g clip-path="url(#d)"><ellipse cx="15.054" cy="7.439" fill="url(#e)" rx="9.196" ry="7.067"/></g><path fill="#fff" d="M10.774 7.447a.96.96 0 0 1 .968-.968c.537 0 .972.423.972.968a.963.963 0 0 1-.972.968.96.96 0 0 1-.968-.968m1.619 0a.64.64 0 0 0-.651-.655.64.64 0 0 0-.648.655.64.64 0 0 0 .648.655.64.64 0 0 0 .651-.655m-3.603 0c0-.545.412-.968.968-.968.364 0 .673.191.813.482l-.269.154a.59.59 0 0 0-.545-.324.64.64 0 0 0-.648.655c0 .368.28.651.648.651.25 0 .453-.128.556-.32l.272.158a.93.93 0 0 1-.828.478.95.95 0 0 1-.968-.968Zm-.281 0c0 .544-.419.968-.931.968a.8.8 0 0 1-.695-.364v.875h-.32V6.528h.32v.317a.8.8 0 0 1 .695-.364c.512 0 .931.423.931.968Zm-.32 0a.643.643 0 0 0-.651-.659.643.643 0 0 0-.655.659c0 .375.283.659.655.659a.64.64 0 0 0 .651-.659m-2.882.666c.254 0 .438-.118.53-.269l.272.155c-.162.25-.442.416-.81.416-.592 0-.986-.416-.986-.968 0-.545.39-.968.964-.968.556 0 .916.456.916.971a1 1 0 0 1-.011.144H4.64c.063.331.324.519.666.519Zm-.666-.799H5.87c-.055-.364-.316-.534-.592-.534-.346 0-.585.213-.637.534m-.608.132c0 .544-.419.968-.931.968a.8.8 0 0 1-.695-.364v.875h-.32V6.527h.32v.317a.8.8 0 0 1 .695-.364c.512 0 .931.423.931.968Zm-.32 0a.643.643 0 0 0-.651-.659.643.643 0 0 0-.655.659c0 .375.283.659.655.659a.64.64 0 0 0 .651-.659m9.542-1.219c.121 0 .235.047.32.133a.45.45 0 0 1 0 .64.45.45 0 0 1-.64 0 .45.45 0 0 1 0-.64.45.45 0 0 1 .32-.133m.263.716a.37.37 0 0 0-.263-.635.37.37 0 0 0-.263.635.37.37 0 0 0 .526 0m-.476-.21a.148.148 0 0 1 .21-.21l.003.003.003-.003a.148.148 0 0 1 .21.21l-.213.213zm.105-.175a.07.07 0 0 0-.05.119l.157.157.157-.157a.07.07 0 0 0-.099-.099l-.057.057-.002.002-.002-.002-.057-.057a.07.07 0 0 0-.049-.02Z"/><defs><radialGradient id="c" cx="0" cy="0" r="1" gradientTransform="matrix(7.251 0 0 3.16682 7.525 4.724)" gradientUnits="userSpaceOnUse"><stop offset="0" stop-color="#009ee2"/><stop offset=".54" stop-color="#008be2" stop-opacity=".46"/><stop offset="1" stop-color="#0078e3" stop-opacity="0"/></radialGradient><radialGradient id="e" cx="0" cy="0" r="1" gradientTransform="matrix(6.80087 0 0 6.14888 15.055 7.439)" gradientUnits="userSpaceOnUse"><stop offset="0" stop-color="#e30567" stop-opacity=".9"/><stop offset=".09" stop-color="#db096c" stop-opacity=".82"/><stop offset=".24" stop-color="#c51478" stop-opacity=".68"/><stop offset=".41" stop-color="#a2268b" stop-opacity=".53"/><stop offset=".62" stop-color="#703fa6" stop-opacity=".34"/><stop offset=".84" stop-color="#325ec8" stop-opacity=".14"/><stop offset="1" stop-color="#0078e3" stop-opacity="0"/></radialGradient><path id="a" d="M.5 5.453h14v4.094H.5z"/></defs></svg>