<svg xmlns="http://www.w3.org/2000/svg" xml:space="preserve" fill-rule="evenodd" stroke-linejoin="round" stroke-miterlimit="2" clip-rule="evenodd" viewBox="0 0 15 15"><path fill="#f4f4f4" d="M3.83 13.659c.025-.104.224-.124.264-.054.017.03.029.061.05.091.021.031.094.129.187.158l.005.002c.018.007.07.013.13.013a.24.24 0 0 0 .228-.172c.033-.094.02-.206-.06-.277l-.001-.001c-.062-.057-.143-.077-.217-.107a2 2 0 0 1-.32-.148c-.171-.108-.271-.249-.271-.461 0-.094.022-.293.197-.459.1-.096.249-.183.54-.183a1 1 0 0 1 .439.097.11.11 0 0 1 .064.093l.014.289v.006l-.105.111h-.088a.11.11 0 0 1-.095-.059q-.027-.06-.058-.113a.2.2 0 0 0-.089-.087.4.4 0 0 0-.134-.021c-.156 0-.198.153-.198.217 0 .046.022.079.032.092.029.039.076.07.173.11l.002.001c.162.069.383.122.512.249.112.108.17.281.17.44a.71.71 0 0 1-.34.6c-.212.127-.519.133-.753.075-.139-.034-.265-.093-.278-.176a1.3 1.3 0 0 1 .003-.327Zm8.894-1.58c.047.017.103.056.106.106.018.329 0 1.867 0 1.867a.106.106 0 0 1-.106.106h-.133a.1.1 0 0 1-.078-.034c-.119-.131-.784-.831-1.112-1.173-.003.349-.007.905-.006 1.101a.106.106 0 0 1-.106.106h-.181a.11.11 0 0 1-.102-.078.1.1 0 0 1-.014.03.1.1 0 0 1-.088.048h-.324a.11.11 0 0 1-.097-.063l-.285-.645h-.492c-.106.254-.161.379-.278.644a.11.11 0 0 1-.097.063h-.195a.1.1 0 0 1-.048-.011.1.1 0 0 1-.048.011h-.287a.106.106 0 0 1-.105-.091l-.126-.926c-.185.392-.423.914-.443.957a.11.11 0 0 1-.096.061h-.09a.1.1 0 0 1-.094-.058c-.066-.13-.318-.638-.489-.981-.045.349-.108.839-.113.939a.105.105 0 0 1-.105.1h-.183a.105.105 0 0 1-.104-.119s.181-1.54.239-1.867c.008-.046.067-.077.107-.092a.23.23 0 0 1 .132 0c.038.011.079.031.098.065.118.215.418.851.608 1.225.172-.361.472-1.016.586-1.231.018-.033.061-.049.096-.059a.2.2 0 0 1 .114 0c.037.015.096.046.105.091.055.292.226 1.66.226 1.66s.59-1.395.728-1.687c.017-.035.061-.053.099-.064a.3.3 0 0 1 .135 0c.038.011.081.03.098.065.159.333.825 1.869.825 1.869.001-.267-.018-1.506 0-1.828.003-.05.065-.089.108-.106s.112-.006.15 0a.14.14 0 0 1 .079.035c.195.197.739.782 1.09 1.148 0 0-.018-.88-.001-1.077.004-.05.059-.09.106-.107a.35.35 0 0 1 .191 0m-2.858.993h.164l-.083-.188zm-4.532.588c.029-.117.231-.112.264-.054.017.03.029.061.05.091.021.031.094.129.187.158l.005.002c.018.007.07.013.13.013a.24.24 0 0 0 .228-.172c.033-.094.02-.206-.06-.277l-.001-.001c-.062-.057-.143-.077-.217-.106a2 2 0 0 1-.32-.148c-.171-.108-.271-.249-.271-.461 0-.094.022-.293.197-.459.1-.096.249-.183.54-.183a1 1 0 0 1 .439.097.11.11 0 0 1 .064.093l.014.289v.006l-.105.111H6.39a.11.11 0 0 1-.095-.059q-.027-.06-.058-.113a.2.2 0 0 0-.089-.087.4.4 0 0 0-.134-.021c-.156 0-.198.153-.198.217 0 .046.022.079.032.092.029.039.076.07.173.11l.002.001c.162.069.383.122.512.249.112.108.17.281.17.44a.71.71 0 0 1-.34.6c-.213.127-.519.133-.753.075-.139-.034-.265-.093-.278-.176a1.3 1.3 0 0 1 .003-.327Zm9.551-1.58c.047.017.103.056.106.106.018.329 0 1.867 0 1.867a.106.106 0 0 1-.106.106h-.133a.1.1 0 0 1-.078-.034c-.119-.131-.784-.831-1.112-1.173-.003.373-.007.983-.006 1.1a.106.106 0 0 1-.106.106h-.181a.106.106 0 0 1-.106-.106c0-.145-.018-1.536 0-1.865.003-.05.063-.089.106-.107s.114-.006.152 0a.15.15 0 0 1 .079.035c.195.197.739.782 1.09 1.148 0 0-.019-.88-.001-1.078.004-.05.059-.089.106-.106a.35.35 0 0 1 .191 0ZM1.529 14.158h-.377a.1.1 0 0 1-.083-.041c-.085-.109-.379-.486-.565-.722l-.001.658a.105.105 0 0 1-.106.105H.105a.106.106 0 0 1-.106-.106v-1.867c0-.058.047-.106.106-.106h.658c.21 0 .396.055.527.241a.57.57 0 0 1 .104.319v.004a.6.6 0 0 1-.184.412.6.6 0 0 1-.214.142l.618.789a.11.11 0 0 1 .012.111.11.11 0 0 1-.095.059ZM.502 12.409l.001.321-.002.227a.7.7 0 0 0 .209-.03.27.27 0 0 0 .167-.256c0-.193-.16-.262-.31-.262zm2.11-.407a1.117 1.117 0 1 1 0 2.234 1.117 1.117 0 0 1 0-2.234m4.838-11a5 5 0 1 1-.001 10.001A5 5 0 0 1 7.45 1.002"/><path fill="#d7213d" d="M1.53 14.05h-.377c-.109-.14-.567-.727-.693-.883l-.062.001c.002.146 0 .882 0 .882H.106v-1.867h.658c.175 0 .332.041.441.197a.46.46 0 0 1 .085.258.5.5 0 0 1-.153.341.56.56 0 0 1-.32.158c.11.144.574.735.714.914Zm-.963-1.749h-.17l.001.427c0 .101-.003.229-.002.332.109.003.248 0 .35-.035a.37.37 0 0 0 .237-.356c0-.263-.211-.368-.416-.368m10.54-.118h.152c.053.059 1.121 1.183 1.273 1.339.003-.262-.001-1.188 0-1.339h.191v1.867h-.133c-.153-.168-1.202-1.27-1.293-1.36-.003.202-.01 1.099-.009 1.36h-.181c.001-.145.002-1.555 0-1.867m-2.438 0h.116l.254 1.867h-.287c-.027-.198-.142-1.032-.173-1.274-.163.325-.57 1.218-.596 1.274h-.09c-.094-.185-.567-1.141-.645-1.289-.015.139-.149 1.142-.157 1.289h-.183l.239-1.867h.135c.031.075.639 1.296.71 1.421.026-.053.605-1.275.677-1.421m-4.735 1.476L4 13.656c.018.033.032.066.054.099a.54.54 0 0 0 .243.199c.024.009.09.02.168.02.33-.003.464-.433.238-.633-.071-.066-.163-.093-.25-.127a2 2 0 0 1-.302-.139c-.138-.087-.222-.2-.222-.372 0-.079.019-.244.165-.383.086-.082.216-.154.467-.154.018 0 .088 0 .151.011a1 1 0 0 1 .246.078c.003.09.014.297.014.297h-.088c-.051-.104-.096-.207-.202-.251a.5.5 0 0 0-.175-.029c-.235 0-.304.226-.304.323 0 .077.037.134.053.155.037.049.093.094.217.145.151.065.36.108.48.227a.52.52 0 0 1 .137.364.6.6 0 0 1-.289.51c-.19.113-.464.115-.673.063-.068-.017-.132-.046-.197-.072zm6.007-1.476h.138c.038.091.779 1.764.824 1.867h-.324l-.313-.708c-.106 0-.509.002-.631 0-.125.298-.179.421-.304.707h-.195c.098-.222.748-1.731.806-1.867Zm-.235.993h.485l-.245-.554c-.036.078-.198.45-.24.554m-7.093-1.071a1.011 1.011 0 1 1 0 2.023 1.011 1.011 0 0 1 0-2.023m.312 1.783a.832.832 0 0 0 .397-1.208h-.234v.466h.129c.087.001.116.068.089.139l-.099.215-.097-.063.065-.151h-.098l-.094.214-.097-.063.062-.151h-.229l-.136.261.341.342Zm-.941-1.317h.825l.053-.104c.033-.071.147-.015.117.05l-.027.054h.29a.83.83 0 0 0-1.258 0m.671 1.376a1 1 0 0 0 .132-.017l-.388-.389.129-.257h-.113l-.143.28zm-.751-1.268a.832.832 0 0 0 .56 1.255l-.376-.374.09-.177c-.058-.047-.107-.11-.107-.196 0-.072.016-.109.046-.151h-.105v.385c-.048-.02-.093-.039-.093-.101v-.281c0-.051.042-.093.093-.093h.789l-.112-.267h-.783Zm3.535.979.066-.003c.018.033.032.066.054.099a.54.54 0 0 0 .243.199c.024.009.09.02.168.02.33-.003.464-.433.238-.633-.071-.066-.163-.093-.25-.127a2 2 0 0 1-.302-.139c-.138-.087-.222-.2-.222-.372 0-.079.019-.244.165-.383.086-.082.216-.154.467-.154.018 0 .088 0 .151.011a1 1 0 0 1 .246.078c.003.09.014.297.014.297h-.088c-.051-.104-.096-.207-.202-.251a.5.5 0 0 0-.174-.029c-.236 0-.304.226-.304.323 0 .077.037.134.053.155.037.049.093.094.217.145.151.065.36.108.48.227a.52.52 0 0 1 .137.364.6.6 0 0 1-.288.51c-.19.113-.464.115-.673.063-.068-.017-.132-.046-.197-.072l.003-.327Zm7.83-1.476h.152c.053.059 1.121 1.183 1.273 1.339.003-.262 0-1.221 0-1.339h.191v1.867h-.133a123 123 0 0 0-1.293-1.36c-.003.202-.009 1.205-.009 1.359h-.181c0-.145.003-1.581 0-1.866M7.451 1.471a4.527 4.527 0 1 1 0 9.054 4.527 4.527 0 0 1 0-9.054m.188 8.249q.304-.015.593-.077L6.493 7.904l.578-1.151h-.506l-.639 1.254zM4.276 4.044a3.727 3.727 0 0 0 2.502 5.619L5.093 7.99l.405-.794c-.262-.212-.48-.491-.48-.877 0-.32.07-.487.204-.675h-.471v1.723c-.213-.088-.416-.173-.416-.453v-1.26c0-.23.187-.415.417-.415h3.531l-.501-1.194zm.357-.486h3.693l.236-.466c.147-.316.656-.065.524.222l-.119.244h1.3A3.72 3.72 0 0 0 7.45 2.271a3.72 3.72 0 0 0-2.817 1.287m4.215 5.896a3.726 3.726 0 0 0 1.778-5.408l-1.046.001-.001 2.085h.579c.389.006.517.303.4.621l-.441.961-.433-.283.291-.677h-.441l-.423.96-.433-.283.28-.677H7.933l-.611 1.17 1.525 1.53Z"/></svg>