<svg xmlns="http://www.w3.org/2000/svg" xml:space="preserve" fill-rule="evenodd" stroke-linejoin="round" stroke-miterlimit="2" clip-rule="evenodd" viewBox="0 0 15 15"><path fill="#d7213d" d="M1.849 8.384h-.357c-.103-.133-.537-.688-.656-.836l-.059.001c.002.138 0 .835 0 .835H.5V6.616h.623c.166 0 .314.039.417.186.049.07.08.158.08.244a.48.48 0 0 1-.144.323.52.52 0 0 1-.303.149c.105.137.544.696.676.865ZM.937 6.727H.776l.001.404c0 .095-.003.217-.002.314.103.003.235 0 .331-.033a.355.355 0 0 0 .225-.337c0-.25-.2-.348-.394-.348m9.984-.111h.144c.05.056 1.062 1.121 1.206 1.268.002-.248-.001-1.126 0-1.268h.181v1.768h-.126a140 140 0 0 0-1.224-1.288c-.003.192-.009 1.041-.008 1.288h-.172c.001-.138.002-1.473 0-1.768Zm-2.309 0h.11l.241 1.768h-.272c-.025-.188-.134-.978-.164-1.207-.154.308-.54 1.153-.565 1.207h-.086c-.089-.175-.537-1.081-.611-1.221-.014.131-.141 1.081-.148 1.221h-.173l.226-1.768h.128c.029.071.605 1.227.672 1.346.025-.05.573-1.207.641-1.346ZM4.127 8.014l.062-.003c.017.031.031.062.051.093a.5.5 0 0 0 .23.189.6.6 0 0 0 .159.019c.312-.003.439-.41.225-.6-.068-.062-.155-.088-.237-.121a2 2 0 0 1-.286-.132c-.131-.082-.21-.189-.21-.352 0-.075.018-.232.156-.363.081-.078.205-.146.442-.146a.8.8 0 0 1 .376.084l.013.281h-.083c-.048-.099-.091-.196-.191-.237a.4.4 0 0 0-.165-.027c-.223 0-.288.214-.288.306 0 .073.035.127.05.147.035.047.088.089.206.137.143.061.341.103.454.215a.5.5 0 0 1 .13.345.57.57 0 0 1-.273.483c-.18.107-.439.109-.638.06-.065-.016-.125-.043-.187-.068zm5.69-1.398h.13c.036.086.737 1.67.78 1.768h-.307l-.297-.67h-.598c-.118.283-.169.399-.288.67h-.185l.764-1.768Zm-.223.94h.459l-.232-.525c-.034.074-.187.426-.227.525M2.876 6.541a.958.958 0 1 1 0 1.916.958.958 0 0 1 0-1.916m.04 1.745a1 1 0 0 0 .125-.016l-.368-.368.122-.244h-.107l-.135.265.362.363ZM2.28 6.982h.781l.05-.099c.031-.067.139-.014.111.047l-.025.052h.275a.786.786 0 0 0-1.192 0m.892 1.247a.79.79 0 0 0 .376-1.144h-.221v.441h.123c.082.001.109.064.085.131l-.093.203-.092-.06.062-.143h-.093l-.089.203-.092-.06.059-.143H2.98l-.129.248.323.324Zm-.967-1.144a.786.786 0 0 0 .529 1.188l-.357-.354.086-.168c-.055-.045-.102-.104-.102-.186 0-.068.015-.103.043-.143h-.1v.364c-.045-.019-.088-.037-.088-.096v-.266c0-.049.04-.088.088-.088h.747l-.106-.253h-.742Zm3.348.928.062-.003c.017.031.031.062.051.093a.5.5 0 0 0 .23.189.6.6 0 0 0 .159.019c.312-.003.439-.41.225-.6-.067-.062-.155-.088-.237-.121a2 2 0 0 1-.286-.132c-.131-.082-.21-.189-.21-.352 0-.075.018-.232.156-.363.082-.078.205-.146.442-.146a.8.8 0 0 1 .376.084l.013.281h-.083c-.048-.099-.091-.196-.191-.237a.4.4 0 0 0-.165-.027c-.223 0-.288.214-.288.306 0 .073.035.127.05.147.035.047.088.089.206.137.143.061.341.103.454.215a.5.5 0 0 1 .13.345.57.57 0 0 1-.273.483c-.18.107-.439.109-.638.06-.065-.016-.125-.043-.187-.068zm7.416-1.398h.144c.05.056 1.061 1.121 1.206 1.268.002-.248 0-1.157 0-1.268h.181v1.768h-.126a140 140 0 0 0-1.224-1.288 149 149 0 0 0-.008 1.287h-.172c0-.137.002-1.498 0-1.768Z"/><path fill="#f4f4f4" d="m12.452 6.716.1-.1v1.768a.1.1 0 0 1-.1.1h-.126a.1.1 0 0 1-.074-.033c-.113-.124-.743-.787-1.053-1.111-.003.331-.006.857-.006 1.043a.1.1 0 0 1-.1.1h-.172a.1.1 0 0 1-.071-.029.1.1 0 0 1-.026-.044.1.1 0 0 1-.097.074h-.307a.1.1 0 0 1-.091-.06l-.27-.611h-.466c-.101.24-.153.359-.263.61a.1.1 0 0 1-.092.06h-.185a.1.1 0 0 1-.045-.011.1.1 0 0 1-.045.011h-.272a.1.1 0 0 1-.099-.087l-.119-.877c-.175.371-.401.866-.42.906a.1.1 0 0 1-.091.057h-.085a.1.1 0 0 1-.089-.055l-.463-.929c-.042.331-.102.795-.107.889a.1.1 0 0 1-.1.095h-.173a.1.1 0 0 1-.075-.034.1.1 0 0 1-.024-.079l.226-1.768a.1.1 0 0 0 .087.112l-.214 1.669h.173c.007-.139.134-1.089.148-1.221.074.14.522 1.045.611 1.221h.086c.025-.054.41-.899.565-1.207.03.229.139 1.019.164 1.207h.272l-.229-1.681.087-.1.214 1.572.69-1.598a.1.1 0 0 0 .008.095.1.1 0 0 0 .044.037l-.724 1.676h.185c.119-.271.17-.387.288-.67h.598l.297.67h.307l-.754-1.708.066-.099c.036.086.737 1.669.78 1.767l.002.004c.001-.253.002-1.454 0-1.731a.1.1 0 0 0 .1.099v1.668h.172c-.001-.247.006-1.096.008-1.288.086.085 1.079 1.129 1.224 1.288h.126V6.715Zm-5.28-.1.001-.1h.125v.1zm.155.059.065-.097c.023.056.396.806.576 1.16.163-.342.502-1.059.555-1.166a.1.1 0 0 0 .005.097.1.1 0 0 0 .042.037c-.149.31-.576 1.212-.598 1.256a66 66 0 0 1-.645-1.287m1.286-.059.001-.1h.108v.1zm1.205 0 .001-.1h.128v.1h-.13Zm1.104 0 .001-.1h.142v.1zm.173.033.044-.099c.04.045.7.74 1.032 1.088l-.001-1.02q.001.04.029.07a.1.1 0 0 0 .071.03c0 .277.002.955 0 1.168a213 213 0 0 1-1.176-1.236Zm1.176-.033v-.1h.181v.1zm-2.677.94c.04-.099.193-.451.227-.525l.232.525zm.151-.1H9.9l-.078-.178zm-5.541.582.023-.023v.033l.05-.085c.016.029.028.058.047.086.02.029.089.122.177.149l.005.002a.5.5 0 0 0 .123.012.23.23 0 0 0 .216-.163c.031-.089.019-.195-.057-.262l-.001-.001c-.058-.054-.135-.073-.206-.101a2 2 0 0 1-.303-.14c-.162-.102-.257-.236-.257-.437 0-.089.021-.278.187-.435.094-.091.236-.174.511-.174a.9.9 0 0 1 .415.093.1.1 0 0 1 .06.088l.013.274v.005l-.1.105h-.083a.1.1 0 0 1-.09-.056q-.026-.056-.055-.107a.18.18 0 0 0-.084-.082.3.3 0 0 0-.127-.02c-.148 0-.188.145-.188.206 0 .043.021.075.03.087.027.037.072.067.164.104l.001.001c.153.066.363.115.485.236a.6.6 0 0 1 .161.417.67.67 0 0 1-.322.568c-.201.12-.491.126-.713.071-.069-.017-.135-.046-.201-.073a.1.1 0 0 0 .131-.055 1 1 0 0 0 .094.031c.198.049.458.047.638-.06a.57.57 0 0 0 .273-.483.5.5 0 0 0-.13-.345c-.113-.113-.311-.154-.454-.215-.118-.048-.171-.09-.206-.137a.25.25 0 0 1-.05-.147c0-.091.065-.306.288-.306.078 0 .128.012.165.027.101.041.143.139.191.237h.083l-.013-.281a.8.8 0 0 0-.233-.074c-.059-.01-.126-.01-.143-.01-.237 0-.361.068-.442.146a.5.5 0 0 0-.156.363c0 .163.079.27.21.352.057.036.147.078.286.132.083.033.17.058.237.121.214.19.087.597-.225.6a.6.6 0 0 1-.159-.019.5.5 0 0 1-.267-.255Zm-.08.385-.1-.101.003-.309.1.101-.003.21.071.029-.071.071Zm.003-.317-.024-.047.024.014zm0-.033-.003-.16.059-.003.003.1-.059.003zm1.502-.036.023-.023v.033l.05-.085c.016.029.028.058.047.086.02.029.089.122.177.149l.005.002a.5.5 0 0 0 .123.012.23.23 0 0 0 .216-.163c.031-.089.019-.195-.057-.262l-.001-.001c-.058-.054-.135-.073-.206-.101a2 2 0 0 1-.303-.14c-.162-.102-.257-.236-.257-.437 0-.089.021-.278.187-.435.095-.091.236-.174.511-.174a.9.9 0 0 1 .415.093.1.1 0 0 1 .06.088l.013.274v.005l-.1.105h-.083a.1.1 0 0 1-.09-.056q-.026-.056-.055-.107a.18.18 0 0 0-.084-.082.3.3 0 0 0-.127-.02c-.148 0-.188.145-.188.206 0 .043.021.075.03.087.027.037.072.067.164.104l.001.001c.153.066.363.115.485.236a.6.6 0 0 1 .161.417.67.67 0 0 1-.322.568c-.201.12-.491.126-.713.071-.069-.017-.135-.046-.201-.073a.1.1 0 0 0 .131-.055 1 1 0 0 0 .094.031c.198.049.458.047.638-.06a.57.57 0 0 0 .273-.483.5.5 0 0 0-.13-.345c-.113-.113-.311-.154-.454-.215-.118-.048-.171-.09-.206-.137a.25.25 0 0 1-.05-.147c0-.091.065-.306.288-.306.078 0 .128.012.165.027.101.041.143.139.191.237h.083l-.013-.281a.8.8 0 0 0-.233-.074c-.059-.01-.126-.01-.143-.01-.237 0-.361.068-.442.146a.5.5 0 0 0-.156.363c0 .163.079.27.21.352.057.036.147.078.286.132.083.033.17.058.237.121.214.19.087.597-.225.6a.6.6 0 0 1-.159-.019.5.5 0 0 1-.267-.255Zm-.08.385-.1-.101.003-.309.1.101-.003.21.071.029-.071.071Zm.003-.317-.024-.047.024.014zm0-.033-.003-.16.059-.003.003.1-.059.003zM14.5 6.714l.1-.1v1.768a.1.1 0 0 1-.1.1h-.126a.1.1 0 0 1-.074-.033c-.113-.124-.743-.787-1.053-1.111l-.006 1.042a.1.1 0 0 1-.1.1h-.172a.1.1 0 0 1-.1-.1c0-.137.002-1.497 0-1.767a.1.1 0 0 0 .1.099V8.38h.172c-.001-.146.005-1.096.008-1.287.086.085 1.079 1.129 1.224 1.288h.126V6.713Zm-1.531-.1v-.1h.144v.1zm.174.032.044-.099c.04.045.7.74 1.032 1.088l-.001-1.021a.1.1 0 0 0 .1.1c.001.271.002.957 0 1.168a185 185 0 0 1-1.175-1.236m1.175-.032v-.1h.181v.1zM1.849 8.482h-.357a.1.1 0 0 1-.079-.039l-.535-.684-.001.623a.1.1 0 0 1-.1.1H.5a.1.1 0 0 1-.1-.1V6.614a.1.1 0 0 1 .1-.1h.623c.199 0 .375.052.499.229a.53.53 0 0 1 .099.302v.004a.57.57 0 0 1-.175.39.6.6 0 0 1-.203.134l.585.747c.024.03.028.071.011.105a.1.1 0 0 1-.09.056ZM.777 7.647v-.1l.058-.001.001.042.019-.019c.14.175.54.687.638.814h.357c-.132-.17-.572-.729-.676-.865a.52.52 0 0 0 .303-.149.47.47 0 0 0 .144-.323.43.43 0 0 0-.08-.244c-.103-.147-.252-.186-.417-.186H.501v1.768h.277v-.735Zm0-.821.001-.1h.16c.194 0 .394.099.394.348a.355.355 0 0 1-.225.337c-.096.033-.228.036-.331.033-.001-.098.002-.219.002-.314zm.1 0 .001.304-.002.215a.7.7 0 0 0 .198-.028.255.255 0 0 0 .158-.243c0-.183-.152-.248-.294-.248zm1.999-.386a1.058 1.058 0 1 1 0 2.117 1.058 1.058 0 0 1 0-2.117m0 .1a.958.958 0 1 0 0 1.916.958.958 0 0 0 0-1.916m-.08 1.117-.122.244.368.368a1 1 0 0 1-.125.016l-.362-.363.135-.265h.107Zm.155.054.028.046v-.1h.217l-.059.143.092.06.089-.203h.092v.003l-.06.141.092.06.093-.203c.025-.067-.002-.13-.085-.131l.002-.1q.057.002.096.023l.017.012a.7.7 0 0 0-.074-.276h-.063v.241h.022v.1h-.123v-.441h.221v.1l.028-.05a.79.79 0 0 1-.404 1.094l-.323-.324zm.372.182.026.008-.018-.027zm.075.054-.014-.004-.064-.042-.092.06-.057-.018-.089-.058.055.016-.092-.138.002-.005h-.006l-.068.129.222.222a.7.7 0 0 0 .204-.161Zm-1.117-.966a.786.786 0 0 1 1.192 0h-.275l.025-.052c.028-.061-.08-.114-.111-.047l-.05.099zm.72-.1.021-.041.002-.003.008-.011a.7.7 0 0 0-.462.055zm-.795.203h.742l.106.253h-.747a.087.087 0 0 0-.088.088v.266c0 .059.043.077.088.096v-.364h.1a.22.22 0 0 0-.043.143c0 .082.046.141.102.186l-.086.168.357.354a.787.787 0 0 1-.529-1.188Zm.028.168.035-.011.038-.004h.597l-.022-.053h-.617l-.03.067Z"/></svg>