<svg xmlns="http://www.w3.org/2000/svg" xml:space="preserve" fill-rule="evenodd" stroke-linejoin="round" stroke-miterlimit="2" clip-rule="evenodd" viewBox="0 0 15 15"><path fill="#d7213d" d="M1.446 8.447h-.383C.952 8.305.488 7.71.36 7.551l-.063.001c.002.148 0 .895 0 .895H0V6.552h.667c.177 0 .337.042.447.199a.46.46 0 0 1 .086.262.5.5 0 0 1-.155.346.56.56 0 0 1-.325.16c.112.146.583.745.725.927ZM.469 6.672H.297l.001.433c0 .102-.003.232-.002.337.111.003.251 0 .355-.036a.38.38 0 0 0 .241-.361c0-.267-.214-.373-.422-.373Zm10.697-.119h.154c.054.06 1.137 1.201 1.292 1.359.003-.266-.001-1.206 0-1.359h.194v1.895h-.135c-.155-.17-1.22-1.289-1.312-1.38-.003.205-.01 1.115-.009 1.38h-.184c.001-.147.002-1.579 0-1.894Zm-2.474 0h.118l.258 1.894h-.291c-.027-.201-.144-1.047-.176-1.293-.165.33-.578 1.236-.605 1.293h-.092c-.095-.188-.575-1.158-.654-1.308-.015.141-.151 1.159-.159 1.308h-.185l.242-1.894h.137c.031.076.649 1.315.72 1.442.027-.053.614-1.294.687-1.442M3.887 8.051l.067-.003c.019.034.033.067.055.1.027.04.125.164.246.202a.6.6 0 0 0 .17.02c.335-.003.471-.439.241-.643-.072-.067-.166-.094-.254-.129a2 2 0 0 1-.307-.141c-.141-.088-.225-.203-.225-.377 0-.08.019-.248.167-.389.087-.084.219-.156.474-.156.018 0 .09 0 .153.011a1 1 0 0 1 .249.079c.003.091.014.301.014.301h-.089c-.052-.106-.097-.21-.205-.254a.5.5 0 0 0-.177-.029c-.239 0-.309.23-.309.327 0 .078.037.136.054.158.037.05.095.095.221.147.153.066.365.11.487.231.094.09.139.236.139.369a.61.61 0 0 1-.293.518c-.193.115-.471.117-.683.064-.069-.017-.134-.046-.2-.073l.003-.332Zm6.096-1.498h.14c.038.092.79 1.79.836 1.895h-.329l-.318-.718c-.108 0-.517.002-.641 0-.126.303-.181.427-.309.718h-.198c.099-.226.759-1.757.818-1.894Zm-.239 1.008h.492l-.248-.563c-.037.079-.201.457-.244.563M2.546 6.474a1.026 1.026 0 1 1 0 2.051 1.026 1.026 0 0 1 0-2.051m.043 1.87a1 1 0 0 0 .134-.017l-.394-.394.131-.261h-.115l-.145.284.388.389Zm-.681-1.397h.837l.054-.106c.033-.072.149-.015.119.05l-.027.055h.295a.843.843 0 0 0-1.278 0Zm.955 1.336a.844.844 0 0 0 .403-1.226h-.237v.473h.131c.088.001.117.069.091.141l-.1.218-.098-.064.066-.154h-.1l-.096.218-.098-.064.063-.153h-.232l-.139.265zM1.827 7.057a.847.847 0 0 0 .568 1.274l-.382-.379.092-.18c-.059-.048-.109-.111-.109-.199 0-.073.016-.11.046-.153h-.107v.391c-.048-.02-.094-.039-.094-.103v-.286c0-.052.042-.094.095-.094h.8l-.114-.271zm3.588.994.067-.003c.019.034.033.067.055.1.027.04.125.164.246.202a.6.6 0 0 0 .17.02c.335-.003.471-.439.241-.643-.072-.067-.166-.094-.254-.129a2 2 0 0 1-.307-.141c-.141-.088-.225-.203-.225-.377 0-.08.019-.248.167-.389.087-.084.219-.156.474-.156.018 0 .09 0 .153.011a1 1 0 0 1 .249.079c.003.091.014.301.014.301h-.089c-.052-.106-.097-.21-.205-.254a.5.5 0 0 0-.177-.029c-.239 0-.309.23-.309.327 0 .078.037.136.054.158.037.05.095.095.221.147.153.066.365.11.487.231.094.09.139.236.139.369a.61.61 0 0 1-.293.518c-.193.115-.471.117-.683.064-.069-.017-.134-.046-.2-.073l.003-.332Zm7.946-1.498h.154c.054.06 1.137 1.201 1.292 1.359.003-.266 0-1.239 0-1.359h.194v1.895h-.135c-.155-.17-1.22-1.289-1.312-1.38-.003.205-.01 1.223-.009 1.379h-.184c0-.147.003-1.604 0-1.894"/></svg>