<?xml version="1.0" encoding="UTF-8" standalone="no"?><!DOCTYPE svg PUBLIC "-//W3C//DTD SVG 1.1//EN" "http://www.w3.org/Graphics/SVG/1.1/DTD/svg11.dtd"><svg width="100%" height="100%" viewBox="0 0 15 15" version="1.1" xmlns="http://www.w3.org/2000/svg" xmlns:xlink="http://www.w3.org/1999/xlink" xml:space="preserve" xmlns:serif="http://www.serif.com/" style="fill-rule:evenodd;clip-rule:evenodd;stroke-linejoin:round;stroke-miterlimit:2;"><path d="M1.714,4.837c-0.013,-0 -0.026,0 -0.039,0.001c-0.051,-0.003 -0.103,0.004 -0.151,0.021c-0.048,0.017 -0.092,0.044 -0.13,0.079c-0.037,0.035 -0.067,0.076 -0.087,0.123c-0.02,0.046 -0.03,0.096 -0.029,0.147l-0.001,0c0,0.05 0.011,0.099 0.031,0.145c0.02,0.046 0.05,0.087 0.088,0.12c0.037,0.034 0.081,0.06 0.13,0.076c0.048,0.016 0.099,0.023 0.15,0.019c0.052,0.005 0.104,-0 0.153,-0.016c0.049,-0.016 0.095,-0.041 0.133,-0.075c0.039,-0.034 0.069,-0.075 0.091,-0.122c0.021,-0.046 0.032,-0.096 0.032,-0.147c-0,-0.051 -0.011,-0.102 -0.032,-0.149c-0.021,-0.047 -0.052,-0.089 -0.09,-0.124c-0.038,-0.035 -0.084,-0.061 -0.133,-0.078c-0.037,-0.013 -0.076,-0.019 -0.115,-0.02Zm7.484,0.087l0,3.397l0.749,0l0,-1.024l0.173,0c0.073,0.001 0.146,-0.01 0.215,-0.032l0.62,1.056l0.759,0l0,-0.075l-0.743,-1.21c0.512,-0.263 0.636,-0.712 0.62,-1.249l-0.712,0c0,0.522 -0.151,0.933 -0.748,0.933l-0.183,-0.003l0,-1.794l-0.748,-0Zm-3.036,0.005l0,3.251c0.369,0.056 0.654,0.205 1.099,0.2c0.792,-0.008 1.497,-0.295 1.497,-1.286c0,-0.881 -0.522,-1.367 -1.244,-1.362c-0.207,0.001 -0.412,0.042 -0.603,0.12l0,-0.924l-0.749,0Zm-1.895,0.803c-0.722,0 -1.245,0.479 -1.245,1.359c0,0.99 0.706,1.294 1.497,1.286c0.5,-0.004 0.781,-0.15 1.099,-0.196l-0.001,-2.159c-0.426,-0.185 -0.885,-0.284 -1.351,-0.29Zm8.88,0.003c-0.722,0 -1.245,0.479 -1.245,1.359c0,0.991 0.706,1.294 1.497,1.286c0.5,-0.004 0.781,-0.15 1.099,-0.196l-0.002,-2.159c-0.426,-0.185 -0.885,-0.284 -1.351,-0.29l-0,0Zm-12.566,0.05l-0,0.611l1.064,0l-1.146,1.846l0,0.083l2.219,0l0,-0.638l-1.131,0l1.131,-1.819l0,-0.084l-2.138,0Zm3.814,0.543c0.17,-0.004 0.338,0.032 0.491,0.103l0,1.291c-0.148,0.042 -0.301,0.063 -0.455,0.061c-0.38,-0.006 -0.655,-0.174 -0.655,-0.691c0,-0.569 0.269,-0.748 0.619,-0.764Zm2.989,0.002c0.35,0.015 0.62,0.195 0.62,0.764c0,0.517 -0.275,0.685 -0.657,0.691c-0.153,0.001 -0.306,-0.021 -0.453,-0.063l-0.001,-1.26c0.148,-0.087 0.318,-0.133 0.491,-0.132l0,0Zm5.891,0.001c0.17,-0.004 0.338,0.031 0.491,0.103l0,1.288c-0.147,0.043 -0.3,0.064 -0.454,0.064c-0.383,-0.006 -0.657,-0.174 -0.657,-0.691c0,-0.569 0.269,-0.748 0.62,-0.764l-0,0Zm-10.266,2.287l-0.119,0.553c0.879,0.646 1.948,0.995 3.047,0.994l0.001,0c1.099,0.001 2.168,-0.347 3.047,-0.993l-0.119,-0.553c-0.881,0.528 -1.895,0.806 -2.928,0.801c-1.034,0.004 -2.048,-0.274 -2.929,-0.803l0,-0Z" style="fill:#006420;fill-rule:nonzero;"/><path d="M5.938,10.663l-0.025,-0c-1.197,-0.005 -2.361,-0.387 -3.318,-1.091c-0.159,-0.117 -0.234,-0.315 -0.193,-0.508l0.051,-0.24l-1.954,0l-0.5,-0.502l0,-0.079l0.5,0.498l-0.425,-0.764l0.672,-1.082l-0.165,0c-0.276,0 -0.5,-0.224 -0.5,-0.5l0,-0.611c-0,-0.276 0.224,-0.5 0.5,-0.5l0.203,0l-0.008,-0.072l0.018,-0.179l0.054,-0.171l0.088,-0.156l0.118,-0.135l0.142,-0.107l0.16,-0.076l0.172,-0.042l0.177,-0.007l-0.07,0.001l0.09,-0.002l0.263,0.046l0.163,0.074l0.145,0.106l0.121,0.134l0.091,0.156l0.056,0.172l0.019,0.18l-0,0.003l-0.008,0.075l0.144,0c0.206,0 0.382,0.124 0.459,0.301c0.292,-0.229 0.665,-0.354 1.089,-0.354l0.007,0c0.476,0.007 0.946,0.098 1.388,0.268l-0,-0.571c-0,-0.276 0.224,-0.5 0.5,-0.5l0.749,0c0.276,0 0.5,0.224 0.5,0.5l0,0.307l0.1,-0.003c0.473,-0.004 0.881,0.151 1.187,0.433l0,-0.743c-0,-0.276 0.224,-0.5 0.5,-0.5l0.748,0c0.276,-0 0.5,0.224 0.5,0.5l0,0.611c0.087,-0.148 0.248,-0.247 0.431,-0.247l0.712,0c0.207,-0 0.386,0.126 0.462,0.307c0.294,-0.233 0.669,-0.36 1.096,-0.36l0,0.5c-0.722,0 -1.245,0.479 -1.245,1.359c0,0.991 0.706,1.294 1.497,1.286c0.5,-0.004 0.781,-0.15 1.099,-0.196l-0.002,-2.159c-0.424,-0.185 -0.883,-0.283 -1.347,-0.29l0.003,-0.5c0.532,0.007 1.057,0.12 1.543,0.332c0.182,0.079 0.3,0.259 0.301,0.458l0.002,2.159c0,0.249 -0.182,0.46 -0.429,0.495c-0.337,0.049 -0.637,0.196 -1.166,0.201c-0.487,0.005 -0.943,-0.098 -1.294,-0.331c-0.077,0.101 -0.191,0.169 -0.316,0.19l-0.081,0.082l-0.759,0c-0.177,-0 -0.341,-0.094 -0.431,-0.247l-0.087,-0.149c-0.048,0.226 -0.249,0.395 -0.489,0.395l-0.525,0l0.053,0.245c0.041,0.193 -0.034,0.391 -0.193,0.508c-0.964,0.708 -2.138,1.091 -3.343,1.09c0.276,0 0.5,-0.224 0.5,-0.5c0,-0.008 -0,-0.016 -0.001,-0.024c0.921,-0.088 1.803,-0.422 2.547,-0.969l-0.119,-0.553c-0.881,0.528 -1.895,0.806 -2.928,0.801c-0.892,0.004 -1.77,-0.203 -2.561,-0.6l0.121,-0.098l0.005,-0.029l-0.013,-0.006c-0.11,-0.048 -0.213,-0.106 -0.308,-0.174c-0.023,0.056 -0.055,0.106 -0.095,0.15c-0.026,-0.015 -0.052,-0.03 -0.078,-0.046l-0.029,0.134c-0.057,0.035 -0.123,0.059 -0.192,0.069c-0.129,-0.165 -0.268,-0.325 -0.276,-0.26l0.235,0.264l-0.029,0.001l-0.164,0c0.017,0.038 0.039,0.073 0.066,0.106c0.037,0.046 0.082,0.085 0.132,0.114c0.047,0.028 0.099,0.049 0.152,0.06l-0.014,0.064c0.745,0.547 1.627,0.881 2.547,0.97c-0,0.008 -0.001,0.016 -0.001,0.024c0,0.239 0.168,0.439 0.392,0.488l0.108,0.012Zm-3.15,-1.843c0.05,0.065 0.099,0.13 0.138,0.183l-0.004,0.017l-0.175,-0.196l0.04,-0.004Zm-2.207,-3.036l0,0.611l1.064,0l-1.146,1.846l0,0.083l2.219,0l0,-0.638l-1.131,0l1.131,-1.819l0,-0.084l-2.138,0Zm3.686,-0.053c-0.722,0 -1.245,0.479 -1.245,1.359c0,0.99 0.706,1.294 1.497,1.286c0.5,-0.004 0.781,-0.15 1.099,-0.196l-0.001,-2.159c-0.426,-0.185 -0.885,-0.284 -1.351,-0.29Zm0.128,0.596c0.17,-0.004 0.338,0.032 0.491,0.103l0,1.291c-0.148,0.042 -0.301,0.063 -0.455,0.061c-0.38,-0.006 -0.655,-0.174 -0.655,-0.691c0,-0.569 0.269,-0.748 0.619,-0.764Zm-0.009,0.954l0,-0.453c-0.026,0.001 -0.05,0.004 -0.069,0.018c-0.02,0.014 -0.02,0.043 -0.027,0.077c-0.01,0.049 -0.015,0.105 -0.015,0.169c0,0.05 0.003,0.094 0.012,0.132c0.004,0.015 -0,0.03 0.01,0.036c0.025,0.015 0.055,0.02 0.088,0.021Zm6.06,-0.612c-0.088,0.033 -0.193,0.05 -0.317,0.05l-0.183,-0.003l0,-1.794l-0.748,-0l0,3.397l0.749,0l0,-0.524l0,-0.262l-0,-0.238l0.172,0l0.001,0.305l0.002,-0.305c0.072,0.001 0.144,-0.01 0.212,-0.032l0.62,1.056l0.759,0l0,-0.075l-0.743,-1.21c0.512,-0.263 0.636,-0.712 0.62,-1.249l-0.712,0c0,0.337 -0.063,0.628 -0.269,0.792c-0.029,-0.098 -0.086,-0.183 -0.163,-0.246l-0,0.336Zm-3.601,2.175c-0.265,-0.047 -0.491,-0.129 -0.758,-0.17c-0.071,-0.011 -0.138,-0.037 -0.195,-0.074c-0.059,0.038 -0.127,0.065 -0.201,0.076c-0.226,0.033 -0.435,0.11 -0.708,0.158c0.313,0.057 0.632,0.086 0.954,0.085l0.004,0c0.304,0.001 0.607,-0.024 0.904,-0.075Zm-4.322,-1.713l-0.035,0.057l0.037,0l-0.002,-0.057Zm-0.809,-2.294l-0.039,0.001c-0.051,-0.003 -0.103,0.004 -0.151,0.021c-0.048,0.017 -0.092,0.044 -0.13,0.079c-0.037,0.035 -0.067,0.076 -0.087,0.123c-0.02,0.046 -0.031,0.096 -0.03,0.147c0,0.05 0.01,0.099 0.031,0.145c0.02,0.046 0.05,0.087 0.088,0.12c0.037,0.034 0.081,0.06 0.13,0.076c0.048,0.016 0.099,0.023 0.15,0.019c0.052,0.005 0.104,-0 0.153,-0.016c0.049,-0.016 0.095,-0.041 0.133,-0.075c0.039,-0.034 0.069,-0.075 0.091,-0.122c0.021,-0.046 0.032,-0.096 0.032,-0.147c-0,-0.051 -0.011,-0.102 -0.032,-0.149c-0.021,-0.047 -0.052,-0.089 -0.09,-0.124c-0.038,-0.035 -0.084,-0.061 -0.133,-0.078c-0.037,-0.013 -0.076,-0.019 -0.115,-0.02Zm4.448,0.092l0,3.251c0.369,0.056 0.654,0.205 1.099,0.2c0.792,-0.008 1.497,-0.295 1.497,-1.286c0,-0.881 -0.522,-1.367 -1.244,-1.362c-0.207,0.001 -0.412,0.042 -0.603,0.12l0,-0.924l-0.749,0Zm1.234,1.401c0.345,0.018 0.608,0.201 0.608,0.763c0,0.517 -0.275,0.685 -0.657,0.691c-0.153,0.001 -0.306,-0.021 -0.453,-0.063l-0.001,-1.26c0.148,-0.087 0.318,-0.133 0.491,-0.132c0.001,0 0.001,0 0.002,0l-0,0.144l0.007,-0.013l0.003,-0.131Zm-0.002,0.953c0.033,-0.002 0.063,-0.006 0.088,-0.022c0.01,-0.006 0.006,-0.021 0.01,-0.036c0.009,-0.038 0.012,-0.082 0.012,-0.132c0,-0.064 -0.004,-0.12 -0.015,-0.169c-0.007,-0.034 -0.007,-0.063 -0.027,-0.077c-0.019,-0.014 -0.044,-0.017 -0.07,-0.018l0,0.453Zm5.882,-0.953c0.17,-0.004 0.338,0.031 0.491,0.103l0,1.288c-0.147,0.043 -0.3,0.064 -0.454,0.064c-0.383,-0.006 -0.657,-0.174 -0.657,-0.691c0,-0.569 0.269,-0.748 0.62,-0.764Zm-0.009,0.954l-0,-0.453c-0.026,0.001 -0.05,0.004 -0.07,0.018c-0.02,0.014 -0.02,0.043 -0.027,0.077c-0.01,0.049 -0.015,0.105 -0.015,0.169c0,0.05 0.003,0.093 0.012,0.132c0.004,0.015 -0,0.03 0.01,0.036c0.025,0.015 0.055,0.02 0.089,0.022Z" style="fill:#f4f4f4;"/></svg>