<svg xmlns="http://www.w3.org/2000/svg" xml:space="preserve" fill-rule="evenodd" stroke-linejoin="round" stroke-miterlimit="2" clip-rule="evenodd" viewBox="0 0 15 15"><path fill="#006420" fill-rule="nonzero" d="m1.714 4.837-.039.001a.4.4 0 0 0-.281.1.37.37 0 0 0-.116.27h-.001a.36.36 0 0 0 .119.265q.056.051.13.076a.4.4 0 0 0 .15.019.38.38 0 0 0 .377-.213.35.35 0 0 0 0-.296.38.38 0 0 0-.338-.222Zm7.484.087v3.397h.749V7.297h.173a.7.7 0 0 0 .215-.032l.62 1.056h.759v-.075l-.743-1.21c.512-.263.636-.712.62-1.249h-.712c0 .522-.151.933-.748.933l-.183-.003V4.923H9.2Zm-3.036.005V8.18c.369.056.654.205 1.099.2.792-.008 1.497-.295 1.497-1.286 0-.881-.522-1.367-1.244-1.362a1.6 1.6 0 0 0-.603.12v-.924h-.749Zm-1.895.803c-.722 0-1.245.479-1.245 1.359 0 .99.706 1.294 1.497 1.286.5-.004.781-.15 1.099-.196l-.001-2.159a3.5 3.5 0 0 0-1.351-.29Zm8.88.003c-.722 0-1.245.479-1.245 1.359 0 .991.706 1.294 1.497 1.286.5-.004.781-.15 1.099-.196l-.002-2.159a3.5 3.5 0 0 0-1.351-.29Zm-12.566.05v.611h1.064L.499 8.242v.083h2.219v-.638H1.587l1.131-1.819v-.084zm3.814.543c.17-.004.338.032.491.103v1.291a1.6 1.6 0 0 1-.455.061c-.38-.006-.655-.174-.655-.691 0-.569.269-.748.619-.764m2.989.002c.35.015.62.195.62.764 0 .517-.275.685-.657.691a1.6 1.6 0 0 1-.453-.063l-.001-1.26a.96.96 0 0 1 .491-.132m5.891.001c.17-.004.338.031.491.103v1.288q-.222.064-.454.064c-.383-.006-.657-.174-.657-.691 0-.569.269-.748.62-.764M3.009 8.618l-.119.553a5.14 5.14 0 0 0 3.047.994h.001a5.14 5.14 0 0 0 3.047-.993l-.119-.553a5.65 5.65 0 0 1-2.928.801 5.65 5.65 0 0 1-2.929-.803Z"/><path fill="#f4f4f4" d="M10.119 7.397h-.073v.924a.1.1 0 0 1-.1.1h-.749a.1.1 0 0 1-.1-.1V4.924a.1.1 0 0 1 .1-.1h.748a.1.1 0 0 1 .1.1v1.695l.045.001.039.001v.1l-.183-.003V4.924h-.748v3.397h.749V7.297h.172a.7.7 0 0 0 .215-.032l.62 1.056h.759v-.075l-.743-1.21c.512-.263.636-.712.62-1.249h-.712c0 .491-.133.885-.649.929a.1.1 0 0 0-.099-.096c.206 0 .352-.053.451-.15.156-.152.197-.401.197-.683a.1.1 0 0 1 .1-.1h.712a.1.1 0 0 1 .1.097c.016.544-.107 1-.58 1.289l.689 1.121q.015.026.015.054v.071l-.1.102h-.759a.1.1 0 0 1-.086-.049l-.581-.991a1 1 0 0 1-.167.016Zm-4.282 2.766a.1.1 0 0 0 .079.098l.017.002A5.24 5.24 0 0 1 2.831 9.25a.1.1 0 0 1-.039-.102l.117-.543a.1.1 0 0 0 .078.11l-.098.455a5.14 5.14 0 0 0 2.947.993ZM2.909 8.605c.004-.016.056.052.083.089l-.001.003zm.171.054.026-.021.002-.01a.1.1 0 0 0-.048-.097c.865.52 1.862.792 2.877.788a5.54 5.54 0 0 0 2.877-.787.1.1 0 0 1 .149.065l.119.553a.1.1 0 0 1-.039.102 5.24 5.24 0 0 1-3.107 1.012.1.1 0 0 0 .1-.1v-.001a5.14 5.14 0 0 0 2.947-.992l-.119-.553a5.65 5.65 0 0 1-2.928.801 5.65 5.65 0 0 1-2.857-.76ZM1.276 5.307a.1.1 0 0 1-.099-.099.45.45 0 0 1 .149-.343.48.48 0 0 1 .346-.127l.044-.001q.074.002.145.025.094.032.168.098a.46.46 0 0 1 .113.536.47.47 0 0 1-.469.272h-.006a.47.47 0 0 1-.491-.461c0 .055.046.1.101.1Zm.437-.47-.039.001a.4.4 0 0 0-.281.1.37.37 0 0 0-.086.415q.03.07.088.12.056.051.13.076a.4.4 0 0 0 .15.019.38.38 0 0 0 .377-.213.35.35 0 0 0 0-.296.38.38 0 0 0-.338-.222Zm11.435.798a3.6 3.6 0 0 1 1.39.299c.036.016.06.052.06.092l.002 2.159a.1.1 0 0 1-.086.099c-.322.047-.607.193-1.113.197-.505.005-.975-.115-1.272-.435-.201-.216-.326-.524-.326-.951 0-.471.143-.834.379-1.079.239-.249.575-.38.966-.38Zm-.001.1c-.722 0-1.245.479-1.245 1.359 0 .991.706 1.294 1.497 1.286.5-.004.781-.15 1.099-.196l-.002-2.159a3.5 3.5 0 0 0-1.351-.29Zm.128.595c.17-.004.338.031.491.103v1.288q-.222.064-.454.064c-.383-.006-.657-.174-.657-.691 0-.569.269-.748.62-.764m0 .1c-.146.007-.276.045-.368.143-.098.104-.151.27-.151.521 0 .222.053.371.153.463s.242.125.405.127a1.5 1.5 0 0 0 .353-.041l-.001-1.146a1 1 0 0 0-.389-.068h-.002ZM.499 8.342l-.085-.153 1.051-1.693H.581a.1.1 0 0 1-.1-.1v-.611a.1.1 0 0 1 .1-.1h2.138a.1.1 0 0 1 .1.1v.082l-.1.102.085-.047-1.036 1.666h.951a.1.1 0 0 1 .1.1v.638a.1.1 0 0 1-.1.1H.5l-.1-.102v-.079l.1.098Zm.082-2.557v.611h1.064L.499 8.242v.083h2.219v-.638H1.587l1.131-1.819v-.084zm5.58-.956h.749a.1.1 0 0 1 .1.1v.782c.162-.051.332-.077.502-.078.391-.003.727.129.966.379.236.247.379.611.379 1.082 0 .428-.125.733-.326.947-.296.316-.766.434-1.27.439-.451.004-.74-.145-1.115-.201a.1.1 0 0 1-.085-.099V4.929a.1.1 0 0 1 .1-.1m0 .1V8.18c.369.056.654.205 1.099.2.792-.008 1.497-.295 1.497-1.286 0-.881-.522-1.367-1.244-1.362a1.6 1.6 0 0 0-.603.12v-.924h-.749Zm1.223 1.5c.146.007.276.045.369.143.098.104.151.271.151.521 0 .222-.053.371-.153.463s-.242.125-.405.127a1.5 1.5 0 0 1-.352-.04L6.993 6.52a.9.9 0 0 1 .387-.091zm-3.117-.797a3.6 3.6 0 0 1 1.39.299c.036.016.06.052.06.092l.001 2.159a.1.1 0 0 1-.086.099c-.322.047-.607.193-1.112.197s-.976-.116-1.273-.435c-.201-.216-.326-.524-.326-.951 0-.471.143-.834.379-1.079.239-.249.575-.38.966-.38Zm-.001.1c-.722 0-1.245.479-1.245 1.359 0 .99.706 1.294 1.497 1.286.5-.004.781-.15 1.099-.196l-.001-2.159a3.5 3.5 0 0 0-1.351-.29Zm.128.596c.17-.004.338.032.491.103v1.291a1.6 1.6 0 0 1-.455.061c-.38-.006-.655-.174-.655-.691 0-.569.269-.748.619-.764m.003.1c-.147.007-.278.044-.371.143-.098.104-.151.27-.151.521 0 .222.053.371.153.464.099.092.241.125.403.127q.18.002.354-.039V6.496a1 1 0 0 0-.387-.069Z"/></svg>