<svg xmlns="http://www.w3.org/2000/svg" xml:space="preserve" fill-rule="evenodd" stroke-linejoin="round" stroke-miterlimit="2" clip-rule="evenodd" viewBox="0 0 15 15"><path fill="#f4f4f4" d="M5.961 10.663a5.77 5.77 0 0 1-3.366-1.091.5.5 0 0 1-.193-.508l.051-.24s-1.591.014-1.954 0c-.322-.013-.649-.443-.425-.847.125-.225.672-1.082.672-1.082H.581a.5.5 0 0 1-.5-.5v-.611a.5.5 0 0 1 .5-.5h.203s-.005-.948.895-.948c.867 0 .895.948.895.948h.144a.5.5 0 0 1 .459.301 1.74 1.74 0 0 1 1.089-.354h.007c.476.007.946.098 1.388.268v-.571a.5.5 0 0 1 .5-.5h.749a.5.5 0 0 1 .5.5v.307l.1-.003c.473-.004.881.151 1.187.433v-.743a.5.5 0 0 1 .5-.5h.748a.5.5 0 0 1 .5.5v.611a.5.5 0 0 1 .431-.247h.712c.207 0 .386.126.462.307.294-.233.669-.36 1.096-.36h.007c.532.007 1.057.12 1.543.332.182.079.3.259.301.458l.002 2.159c0 .249-.182.46-.429.495-.337.049-.637.196-1.166.201-.487.005-.943-.098-1.294-.331a.5.5 0 0 1-.316.19l-.081.082h-.759a.5.5 0 0 1-.431-.247l-.087-.149a.5.5 0 0 1-.489.395h-.525l.053.245a.5.5 0 0 1-.193.508 5.58 5.58 0 0 1-3.32 1.09Z"/><path fill="#006420" fill-rule="nonzero" d="m1.714 4.837-.039.001a.4.4 0 0 0-.281.1.37.37 0 0 0-.116.27h-.001a.36.36 0 0 0 .119.265q.056.051.13.076a.4.4 0 0 0 .15.019.38.38 0 0 0 .377-.213.35.35 0 0 0 0-.296.38.38 0 0 0-.338-.222Zm7.484.087v3.397h.749V7.297h.173a.7.7 0 0 0 .215-.032l.62 1.056h.759v-.075l-.743-1.21c.512-.263.636-.712.62-1.249h-.712c0 .522-.151.933-.748.933l-.183-.003V4.923H9.2Zm-3.036.005V8.18c.369.056.654.205 1.099.2.792-.008 1.497-.295 1.497-1.286 0-.881-.522-1.367-1.244-1.362a1.6 1.6 0 0 0-.603.12v-.924h-.749Zm-1.895.803c-.722 0-1.245.479-1.245 1.359 0 .99.706 1.294 1.497 1.286.5-.004.781-.15 1.099-.196l-.001-2.159a3.5 3.5 0 0 0-1.351-.29Zm8.88.003c-.722 0-1.245.479-1.245 1.359 0 .991.706 1.294 1.497 1.286.5-.004.781-.15 1.099-.196l-.002-2.159a3.5 3.5 0 0 0-1.351-.29Zm-12.566.05v.611h1.064L.499 8.242v.083h2.219v-.638H1.587l1.131-1.819v-.084zm3.814.543c.17-.004.338.032.491.103v1.291a1.6 1.6 0 0 1-.455.061c-.38-.006-.655-.174-.655-.691 0-.569.269-.748.619-.764m2.989.002c.35.015.62.195.62.764 0 .517-.275.685-.657.691a1.6 1.6 0 0 1-.453-.063l-.001-1.26a.96.96 0 0 1 .491-.132m5.891.001c.17-.004.338.031.491.103v1.288q-.222.064-.454.064c-.383-.006-.657-.174-.657-.691 0-.569.269-.748.62-.764M3.009 8.618l-.119.553a5.14 5.14 0 0 0 3.047.994h.001a5.14 5.14 0 0 0 3.047-.993l-.119-.553a5.65 5.65 0 0 1-2.928.801 5.65 5.65 0 0 1-2.929-.803Z"/></svg>