<svg xmlns="http://www.w3.org/2000/svg" xmlns:xlink="http://www.w3.org/1999/xlink" xml:space="preserve" fill-rule="evenodd" stroke-linejoin="round" stroke-miterlimit="2" clip-rule="evenodd" viewBox="0 0 15 15"><path fill="#f4f4f4" d="M9.876 6.066c0-.162.12-.3.3-.3h.313a.3.3 0 0 1 .3.3v.273a.95.95 0 0 1 .411-.09 1.05 1.05 0 0 1 .453.102.3.3 0 0 1 .2-.077h.293q.062 0 .115.023a.8.8 0 0 1 .273-.048c.269 0 .464.086.596.242a1.02 1.02 0 0 1 .669-.242q.288.001.511.13a.94.94 0 0 1 .363.37c.084.155.127.318.127.514q0 .29-.123.517a.96.96 0 0 1-.878.512c-.192 0-.368-.044-.538-.147a.3.3 0 0 1-.24.119h-.296a.3.3 0 0 1-.29-.222.3.3 0 0 1-.29.222h-.666a.3.3 0 0 1-.122-.026 1 1 0 0 1-.338.053.8.8 0 0 1-.366-.077.3.3 0 0 1-.165.049h-.617a.3.3 0 0 1-.29-.225l-.203-.786v.711a.3.3 0 0 1-.3.3h-.313a.3.3 0 0 1-.3-.3V6.066a.3.3 0 0 1 .3-.3h.617a.3.3 0 0 1 .29.225l.203.786zm-6.39 3.157a3.16 3.16 0 0 1-1.837-.595.27.27 0 0 1-.105-.277l.028-.131s-.868.008-1.066 0C.33 8.213.152 7.978.274 7.758c.068-.123.367-.591.367-.591h-.09a.273.273 0 0 1-.273-.273v-.333c0-.151.122-.273.273-.273h.111s-.003-.517.489-.517c.473 0 .489.517.489.517h.078c.112 0 .209.068.25.165a.95.95 0 0 1 .594-.193h.004c.26.004.516.053.757.146v-.312c0-.151.122-.273.273-.273h.409c.151 0 .273.122.273.273v.168l.054-.002a.92.92 0 0 1 .648.236v-.405c0-.151.122-.273.273-.273h.408c.151 0 .273.122.273.273v.333a.27.27 0 0 1 .235-.135h.389c.113 0 .211.069.252.168a.95.95 0 0 1 .598-.196h.004c.29.004.577.066.842.181.1.043.164.141.164.25l.001 1.178c0 .136-.1.251-.234.27-.184.027-.347.107-.636.11a1.26 1.26 0 0 1-.706-.18.28.28 0 0 1-.172.104l-.044.045h-.414a.27.27 0 0 1-.235-.135l-.048-.081a.27.27 0 0 1-.267.216h-.286l.029.134a.27.27 0 0 1-.105.277 3.05 3.05 0 0 1-1.812.595Z"/><path fill="url(#a)" fill-rule="nonzero" d="M11.618 6.686a.5.5 0 0 0-.185-.104.8.8 0 0 0-.233-.035.64.64 0 0 0-.382.119.5.5 0 0 0-.2.343h.294a.26.26 0 0 1 .099-.165.3.3 0 0 1 .187-.061q.132 0 .209.077.072.075.075.214l-.44.082a.8.8 0 0 0-.323.122.36.36 0 0 0-.152.306q0 .192.124.299a.5.5 0 0 0 .328.107.6.6 0 0 0 .321-.077.4.4 0 0 0 .139-.149v.199h.294v-.754q0-.174-.026-.301a.4.4 0 0 0-.128-.221Zm-.18.866a.35.35 0 0 1-.163.157.44.44 0 0 1-.192.042.26.26 0 0 1-.163-.046.15.15 0 0 1-.061-.128q0-.075.05-.124a.45.45 0 0 1 .204-.085l.371-.072a.6.6 0 0 1-.046.256m1.573-.612q.011.104.01.209v.813h-.296v-.813a.8.8 0 0 0-.016-.179.23.23 0 0 0-.054-.109q-.06-.067-.189-.067-.152 0-.226.09a.35.35 0 0 0-.072.152 1.2 1.2 0 0 0-.022.259v.669h-.294V6.573h.294v.189a.54.54 0 0 1 .179-.167.46.46 0 0 1 .209-.047q.314 0 .425.226a.5.5 0 0 1 .052.167Zm1.399-.049a.65.65 0 0 0-.249-.254.7.7 0 0 0-.363-.091.7.7 0 0 0-.363.091.63.63 0 0 0-.248.254.76.76 0 0 0-.088.369c0 .138.029.269.088.379a.63.63 0 0 0 .248.257.7.7 0 0 0 .363.092q.205 0 .366-.093a.65.65 0 0 0 .248-.259.8.8 0 0 0 .088-.377.74.74 0 0 0-.09-.369Zm-.262.613a.382.382 0 0 1-.698.002.55.55 0 0 1-.052-.246q0-.132.051-.238a.38.38 0 0 1 .349-.222.37.37 0 0 1 .206.06q.092.06.143.165a.54.54 0 0 1 .051.235.6.6 0 0 1-.051.244Zm-3.974-1.44h.313v1.898H9.87l-.243-.942c-.299-.192-.504-.483-.55-.814v1.756h-.313V6.064h.617l.243.943c.299.192.504.483.55.814z"/><path fill="#006420" fill-rule="nonzero" d="m1.155 6.043-.021.001a.2.2 0 0 0-.153.055.2.2 0 0 0-.063.147H.917a.2.2 0 0 0 .136.187.2.2 0 0 0 .082.01.2.2 0 0 0 .084-.009.196.196 0 0 0 .074-.335.2.2 0 0 0-.073-.043.2.2 0 0 0-.063-.011Zm4.084.047v1.854h.409v-.559h.094q.06 0 .117-.017l.338.576h.414v-.041l-.406-.66c.279-.144.347-.388.338-.682h-.389c0 .285-.082.509-.408.509l-.1-.001V6.09h-.408Zm-1.657.003v1.774c.201.031.357.112.6.109.432-.004.817-.161.817-.702 0-.481-.285-.746-.679-.743a.9.9 0 0 0-.329.066v-.504zm-1.034.438c-.394 0-.679.261-.679.742 0 .54.385.706.817.702.273-.002.426-.082.6-.107L3.285 6.69a1.9 1.9 0 0 0-.737-.158Zm4.846.001c-.394 0-.679.261-.679.742 0 .541.385.706.817.702.273-.002.426-.082.6-.107l-.001-1.178a1.9 1.9 0 0 0-.737-.158Zm-6.857.027v.333h.581L.493 7.899v.045h1.211v-.348h-.617l.617-.992v-.046H.538Zm2.081.296a.6.6 0 0 1 .268.056v.704a1 1 0 0 1-.249.033c-.207-.003-.357-.095-.357-.377 0-.31.147-.408.338-.417Zm1.631.001c.191.008.338.106.338.417 0 .282-.15.374-.359.377a1 1 0 0 1-.247-.035v-.687a.53.53 0 0 1 .268-.072m3.215 0a.6.6 0 0 1 .268.056v.703a1 1 0 0 1-.247.035c-.209-.003-.359-.095-.359-.377 0-.31.147-.408.338-.417M1.862 8.104l-.065.302a2.8 2.8 0 0 0 1.663.542c.6.001 1.183-.19 1.663-.542l-.065-.302a3.1 3.1 0 0 1-1.598.437 3.1 3.1 0 0 1-1.598-.438Z"/><defs><linearGradient id="a" x1="0" x2="1" y1="0" y2="0" gradientTransform="translate(8.764 7.026)scale(5.73647)" gradientUnits="userSpaceOnUse"><stop offset="0" stop-color="#0bf"/><stop offset=".3" stop-color="#00b8fc"/><stop offset=".48" stop-color="#00b0f5"/><stop offset=".62" stop-color="#00a1e8"/><stop offset=".75" stop-color="#008dd6"/><stop offset=".87" stop-color="#0073bf"/><stop offset=".98" stop-color="#0053a2"/><stop offset="1" stop-color="#004e9e"/></linearGradient></defs></svg>